<svg width="106" height="150" viewBox="0 0 106 150" fill="none" xmlns="http://www.w3.org/2000/svg">
<g filter="url(#filter0_d)">
<path d="M101.048 118.512C101.048 118.505 101.048 118.492 101.045 118.482C101.039 118.456 101.029 118.43 101.016 118.404C101.013 118.385 101.006 118.368 100.996 118.352C100.993 118.339 100.983 118.326 100.977 118.313C100.957 118.284 100.944 118.254 100.925 118.228C100.921 118.228 100.921 118.225 100.921 118.225C99.0189 115.727 96.3413 113.463 93.3835 111.85C89.6635 109.824 85.5818 108.554 81.6305 107.322C80.0311 106.824 78.3958 106.316 76.7801 105.755C76.5065 105.658 76.2329 105.563 75.9625 105.465C75.3533 105.244 74.7474 105.016 74.1546 104.778C72.3825 104.068 70.5909 103.205 69.4866 101.732C67.7797 99.4522 68.0338 96.1784 68.4377 93.0252C68.7928 90.2824 69.1446 87.5396 69.4996 84.7935C70.0208 84.7349 70.542 84.6176 71.0339 84.4417C73.0926 83.6892 74.6725 82.0865 75.8192 80.7738C77.7639 78.5489 79.4154 76.0635 80.7282 73.3826C82.3504 70.099 83.4286 66.6135 83.9563 63.0107C84.6665 62.711 85.3408 62.3397 85.9564 61.8999C89.2497 59.5252 91.3801 55.2482 91.6473 50.4466C91.7417 48.7234 91.6277 44.5115 88.5038 42.6417C87.8816 42.2671 87.1878 42.026 86.4418 41.9251C86.4516 41.8599 86.4548 41.7882 86.4646 41.7133C86.7838 38.3809 86.191 35.0583 85.5688 32.2471C85.0411 29.8398 84.3668 27.3022 83.054 25.0709C81.5686 22.5365 79.4415 20.7775 77.0603 20.1227C75.3045 19.6374 73.3663 19.8524 71.8125 20.6505C71.49 15.0183 68.5908 9.41216 64.0434 5.77029C59.1474 1.84503 52.3523 0.105534 45.8601 1.10884C39.723 2.06002 33.7553 5.45432 29.488 10.422C28.0873 12.0572 26.8397 13.8716 25.6312 15.6242C23.2858 19.0348 21.0674 22.2499 17.7676 24.3477C17.2562 24.6734 16.7154 24.9764 16.1454 25.2956C14.1062 26.4423 11.9953 27.628 11.1451 29.8984C10.3601 31.9832 10.9432 34.5827 12.7348 37.0291C13.9303 38.6513 15.4971 40.0748 17.292 41.1498C17.6536 42.3941 17.9761 43.7265 18.2725 45.2021C17.8556 45.7493 17.4875 46.3878 17.1519 47.1468C15.2724 51.388 15.7936 56.4665 18.4419 59.7826C19.0706 60.5709 19.8361 61.2582 20.7091 61.8283C21.5821 66.6819 22.7776 70.4541 24.465 73.6888C24.4748 73.7083 24.4845 73.7246 24.4943 73.7441C25.0872 74.8777 25.7517 75.9592 26.4781 76.956C28.9603 80.3764 32.5044 83.0084 36.2733 84.2397L37.407 93.0252C37.8141 96.1784 38.065 99.4522 36.358 101.732C35.2538 103.205 33.4621 104.068 31.6933 104.778C31.1037 105.013 30.5044 105.237 29.905 105.456C29.6183 105.56 29.3317 105.661 29.0417 105.762C27.4358 106.319 25.8071 106.827 24.2142 107.322C20.2661 108.554 16.1812 109.824 12.4644 111.85C9.50663 113.463 6.82573 115.727 4.92662 118.225C4.92662 118.225 4.92662 118.228 4.92336 118.228C4.90381 118.254 4.88753 118.28 4.8745 118.306C4.86472 118.323 4.85495 118.339 4.84844 118.352C4.84192 118.365 4.83866 118.381 4.83215 118.398C4.81912 118.424 4.80935 118.453 4.79957 118.482C4.79957 118.486 4.79957 118.492 4.79632 118.499C4.7898 118.534 4.78329 118.574 4.78003 118.616C4.78003 118.632 4.78329 118.648 4.78329 118.671C4.78329 118.694 4.78329 118.72 4.7898 118.749C4.79306 118.776 4.79957 118.805 4.80935 118.834C4.8126 118.847 4.81586 118.863 4.81912 118.877C4.82889 118.906 4.84192 118.932 4.85495 118.958C4.86147 118.974 4.86798 118.987 4.87775 119.004C4.88101 119.007 4.88101 119.013 4.88101 119.017C13.1843 132.643 32.0419 141.451 52.9223 141.451C73.806 141.451 92.6636 132.643 100.964 119.017C100.964 119.013 100.967 119.007 100.97 119.004C100.977 118.991 100.98 118.978 100.99 118.961C101.003 118.935 101.016 118.906 101.026 118.877C101.032 118.867 101.032 118.857 101.035 118.841C101.045 118.811 101.055 118.779 101.058 118.746C101.061 118.727 101.058 118.707 101.061 118.684C101.061 118.662 101.065 118.639 101.065 118.613C101.061 118.58 101.058 118.544 101.048 118.512Z" fill="black"/>
<path d="M23.6669 57.2808C23.2695 56.7629 22.9209 56.0072 23.0382 55.3361C23.2076 54.3458 24.2142 53.3393 25.2272 54.0918C25.7321 54.4729 26.7061 54.0918 26.413 53.3849C25.5921 51.4141 25.6507 48.554 23.504 47.4009C22.2597 46.7298 20.5821 47.0523 19.9143 48.3488C19.6602 48.8407 20.5104 48.9938 20.7449 48.6062C22.0251 46.4855 23.8917 49.1502 24.25 50.401C24.465 51.147 24.579 51.9125 24.7451 52.6617C23.2955 52.5738 21.8101 53.5836 21.5658 55.1602C21.1521 57.8965 24.0871 60.1604 26.6149 60.1051C27.0547 60.0985 27.615 59.5383 27.0449 59.2223C25.8624 58.5741 24.5432 58.4242 23.6669 57.2808ZM35.7619 42.8893C35.7619 45.0327 37.951 44.0164 40.6547 44.0164C43.3584 44.0164 45.5507 45.0327 45.5507 42.8893C45.5507 40.7426 43.3584 39.0031 40.6547 39.0031C37.951 39.0031 35.7619 40.7426 35.7619 42.8893ZM62.8544 70.6365C62.4895 70.4834 62.1866 70.2717 61.8999 69.998C61.8674 69.9687 61.8348 69.9329 61.8022 69.9003C61.584 69.6723 61.4113 69.4182 61.2713 69.1381L61.2289 69.0534C61.0725 68.7276 61.0107 68.353 60.7729 68.0761C60.6458 67.923 60.3136 67.9198 60.1865 68.0826C59.6979 68.7081 59.9129 69.6136 60.3103 70.3205C58.9063 72.3336 57.0626 74.0503 54.5999 74.6269C51.5412 75.3436 48.2706 74.2588 46.0262 72.1219C45.808 71.9134 45.277 72.1154 45.5116 72.4216C47.655 75.2556 51.2317 76.6661 54.7433 75.982C57.3688 75.4739 59.9683 73.7995 61.2224 71.402C61.9162 71.9688 62.8707 72.3532 63.685 71.9362C63.9717 71.7896 64.2128 71.4313 63.9163 71.1512C63.6134 70.8645 63.229 70.7896 62.8544 70.6332V70.6365ZM60.294 42.8893C60.294 45.0327 62.4863 44.0164 65.19 44.0164C67.897 44.0164 70.0827 45.0327 70.0827 42.8893C70.0827 40.7426 67.897 39.0031 65.19 39.0031C62.4863 39.0031 60.294 40.7426 60.294 42.8893ZM82.9335 48.8081C81.4416 50.4597 80.6011 52.577 80.3471 54.7628C80.2689 55.4175 81.1842 55.4599 81.5621 55.1798C82.0833 54.7954 83.5817 53.5868 83.8717 55.3882C83.9401 55.7987 83.6176 56.4469 83.4449 56.802C82.9302 57.8639 82.0279 58.5806 81.207 59.3917C80.8292 59.763 81.4318 60.0399 81.7478 59.952C83.6762 59.4015 85.546 57.0365 85.3505 54.981C85.1649 53.0135 83.4612 53.0298 82.0214 53.5738C82.6012 51.0721 84.2235 47.6517 86.9011 48.0361C87.2594 48.0882 87.6112 47.6517 87.2464 47.4074C85.7252 46.378 83.9629 47.6647 82.9335 48.8081ZM81.2135 108.668C80.6891 108.505 80.1614 108.339 79.6304 108.169C77.6368 110.13 75.4413 111.912 73.3402 113.756C71.0209 115.782 68.6853 117.782 66.3529 119.792C63.9489 121.867 61.5384 123.935 59.1213 125.997C57.9845 126.968 56.8476 127.939 55.7107 128.913C55.2091 129.34 54.7107 129.815 54.1927 130.268C53.7628 130.649 53.3132 131.007 52.8376 131.307C52.4207 131.053 52.0233 130.74 51.6389 130.408C51.0232 129.88 50.4434 129.297 49.8733 128.809C48.7332 127.835 47.5963 126.861 46.4562 125.883C44.1076 123.873 41.7622 121.86 39.4233 119.834C37.0161 117.753 34.6023 115.678 32.2113 113.57C30.1949 111.801 28.0873 110.081 26.1914 108.179C25.667 108.345 25.1491 108.508 24.6311 108.668C20.7515 109.876 16.735 111.124 13.1387 113.085C10.5002 114.521 8.10917 116.502 6.34688 118.691C14.5264 131.675 32.7325 140.044 52.9223 140.044C73.1122 140.044 91.3215 131.675 99.4978 118.691C97.7387 116.502 95.3477 114.521 92.7059 113.088C89.1129 111.124 85.0965 109.876 81.2135 108.668ZM19.9273 43.6678C20.4583 43.3453 21.0577 43.1206 21.6929 42.9968C20.7743 42.759 19.8687 42.4397 18.9957 42.0456C19.1585 42.6678 19.3116 43.316 19.4582 43.9936C19.6113 43.873 19.7677 43.7655 19.9273 43.6678ZM26.6084 43.9903C26.5986 43.8242 26.5889 43.6515 26.5791 43.4821C26.2924 43.5017 26.0058 43.5115 25.7126 43.5115C26.0188 43.645 26.3152 43.8079 26.6084 43.9903ZM28.5433 61.7664C27.8332 57.2092 27.2794 52.5803 26.8983 47.9677C26.8364 47.2478 26.7811 46.5279 26.7289 45.8112C26.6898 45.7787 26.6475 45.7428 26.6084 45.7168C26.0774 45.2868 25.5237 44.948 24.9503 44.7135C23.4747 44.0978 21.8329 44.1564 20.6602 44.8698C20.2693 45.1109 19.9013 45.4301 19.5755 45.8275C19.5722 45.8308 19.5722 45.8308 19.569 45.834C19.152 46.3324 18.7709 46.9611 18.4386 47.7136C16.7676 51.4923 17.2106 55.9876 19.5429 58.9031C20.1325 59.6425 20.8622 60.281 21.7124 60.8022C23.8298 62.0889 26.3967 62.4439 28.5433 61.7664ZM35.3482 82.3862C32.4035 78.8421 31.0679 74.3859 30.3089 71.2163C30.0353 70.073 29.7714 68.8286 29.488 67.2976C29.2339 65.936 28.9929 64.5548 28.7681 63.1704C27.9765 63.3984 27.1426 63.5091 26.2957 63.5091C24.9569 63.5091 23.5855 63.2322 22.2988 62.6817C23.1229 66.8383 24.2142 70.1381 25.6865 72.9884C25.6963 73.0047 25.7093 73.0242 25.7159 73.0405C26.2827 74.135 26.9244 75.1742 27.615 76.1286C29.6248 78.8942 32.3741 81.1028 35.3482 82.3862ZM46.8667 56.372V52.8344C46.8667 51.9255 46.1272 51.1861 45.2151 51.1861H42.2769V56.7336C42.2769 57.7304 41.4625 58.5447 40.469 58.5447C39.4722 58.5447 38.6578 57.7304 38.6578 56.7336V51.1861H34.9964C34.7847 51.1861 34.5827 51.2252 34.397 51.3001C33.8856 51.4988 33.498 51.9451 33.3807 52.4923C33.3579 52.5998 33.3449 52.7171 33.3449 52.8344V55.6195C33.3449 58.2874 35.5176 60.4569 38.192 60.4569H42.7753C45.0327 60.4569 46.8667 58.6262 46.8667 56.372ZM58.8965 20.6179C59.6816 20.0739 60.6002 20.2726 61.3234 20.5593C59.6816 19.0576 57.8867 17.6699 55.8769 16.748C52.3132 15.1127 48.4172 15.3115 45.9416 17.2594C44.2607 18.5885 43.101 20.7384 42.4039 23.82C42.9121 23.9242 43.4887 23.8786 43.8731 23.5431C44.0913 23.3542 44.2737 23.061 44.4659 22.7515C44.8079 22.2043 45.1923 21.5821 45.9318 21.2954C47.1468 20.8101 48.2609 21.5919 49.1599 22.2173C50.0101 22.8134 50.5607 23.162 50.9711 22.9144C51.2806 22.7287 51.4174 22.2141 51.564 21.6701C51.7692 20.9273 52.0168 20.0022 52.8898 19.5559C54.3621 18.8035 55.8345 20.24 56.3134 20.7124C56.903 21.2922 57.6685 21.7515 58.0496 21.4811C58.1343 21.4225 58.2288 21.3052 58.3297 21.1847C58.4796 20.999 58.6457 20.7905 58.8965 20.6179ZM66.5321 22.8688C67.3139 21.3867 68.7211 20.2433 70.3336 19.8524C69.7993 14.9108 67.1673 10.0767 63.1671 6.86806C58.5708 3.19037 52.1829 1.55511 46.0751 2.49978C40.267 3.4021 34.6088 6.62375 30.5597 11.3406C29.2014 12.9172 27.9765 14.699 26.7908 16.4223C24.4682 19.797 22.0642 23.2858 18.5233 25.5367C17.9793 25.882 17.3995 26.2077 16.836 26.5237C14.9336 27.5954 13.1322 28.6052 12.4644 30.3968C11.5914 32.7129 13.1583 35.2244 13.8749 36.1952C15.002 37.7392 16.5167 39.0845 18.2432 40.0781C20.9827 41.6612 24.1523 42.3518 27.1654 42.0228C27.1785 42.0228 27.1915 42.0195 27.2045 42.0195C27.3576 42.0065 27.5075 41.9837 27.6541 41.9642C32.8172 41.2117 37.4623 37.4069 39.2149 32.4979C39.8468 30.7356 40.1269 28.9017 40.4201 26.9602C40.5634 26.0416 40.71 25.0904 40.8957 24.1555C40.8957 24.149 40.899 24.1132 40.9022 24.1066C41.6482 20.3801 43.0131 17.7806 45.0685 16.1551C47.9547 13.8814 52.4272 13.6143 56.4665 15.4711C59.6034 16.9076 62.1801 19.3312 64.4636 21.6407C64.3756 20.9958 64.2975 20.3573 64.1476 19.7807C63.7306 18.1487 63.1248 16.5591 62.3462 15.0574C60.7859 12.0572 58.6588 9.39913 56.0234 7.27525C55.6391 6.96253 56.3492 6.5358 56.6684 6.74754C59.6653 8.73786 62.1671 11.3666 63.8968 14.5362C64.7209 16.0509 65.3854 17.6634 65.861 19.3247C66.164 20.3768 66.5419 21.6733 66.5321 22.8688ZM72.4998 56.372V52.8344C72.4998 52.7171 72.49 52.5998 72.464 52.4923C72.3499 51.9451 71.959 51.4988 71.4509 51.3001C71.2652 51.2252 71.0632 51.1861 70.8515 51.1861H67.1868V56.7336C67.1868 57.7304 66.3757 58.5447 65.3757 58.5447C64.3821 58.5447 63.5678 57.7304 63.5678 56.7336V51.1861H60.6295C59.7207 51.1861 58.9812 51.9255 58.9812 52.8344V55.6195C58.9812 55.7466 58.9845 55.8736 58.9975 55.9974C59.1897 58.4894 61.2778 60.4569 63.8251 60.4569H68.4116C70.6658 60.4569 72.4998 58.6262 72.4998 56.372ZM72.8646 50.173C73.4184 49.7821 73.9787 49.3945 74.5325 49.0036C73.7897 48.5084 73.1936 47.8211 72.832 47.0035C72.1121 45.3617 72.3955 43.619 72.6692 41.9316C72.7278 41.5895 72.7832 41.2475 72.8288 40.9087C73.6008 35.2896 71.2847 29.3121 66.9295 25.6768C66.8969 25.6474 66.8709 25.6214 66.8415 25.5888C66.6461 25.4259 66.4409 25.2663 66.2389 25.1067C65.9751 24.9047 65.7079 24.706 65.4343 24.5106C65.3529 24.4813 65.291 24.4324 65.2389 24.3738C63.9294 23.4584 62.5417 22.6603 61.0953 21.9925C60.4145 21.6766 59.9422 21.6016 59.7011 21.771C59.6165 21.8329 59.522 21.9469 59.421 22.0707C59.2712 22.2531 59.105 22.4584 58.864 22.6278C57.9063 23.3118 56.6163 22.9796 55.3296 21.7222C54.5152 20.9208 53.9093 20.6146 53.5315 20.8101C53.235 20.9599 53.1047 21.3736 52.9256 22.0349C52.7334 22.7515 52.4923 23.6441 51.691 24.1229C50.4694 24.8526 49.2935 24.035 48.3521 23.3705C47.5117 22.7841 46.9253 22.4128 46.4497 22.5984C46.1468 22.7222 45.9187 23.0773 45.6647 23.4942C45.4366 23.8623 45.176 24.276 44.7949 24.6083C44.1239 25.1914 43.1271 25.3999 42.1368 25.1979C42.0228 25.8559 41.9153 26.5204 41.8143 27.1719C41.5211 29.0939 41.2182 31.0809 40.5406 32.9703C38.6318 38.3158 33.5957 42.4691 27.9798 43.3323C28.0222 44.062 28.0678 44.7623 28.1068 45.378C28.1101 45.3878 28.1101 45.4041 28.1101 45.4171C28.1134 45.4301 28.1134 45.4464 28.1134 45.4659C28.1492 45.922 28.1818 46.378 28.2176 46.8341C29.8072 47.9481 31.3936 49.0589 32.9833 50.173C33.5436 49.7495 34.2407 49.4954 34.9964 49.4954H38.8793C39.1888 48.9319 39.7849 48.5508 40.469 48.5508C41.1498 48.5508 41.7524 48.9319 42.0586 49.4954H45.2151C46.7429 49.4954 48.0329 50.5248 48.4303 51.9223C49.3912 51.3327 50.4662 50.9353 51.59 50.7789C51.6193 50.7105 51.6487 50.6388 51.6747 50.5704C51.7887 50.2968 52.4142 50.3847 52.3132 50.717C52.4467 50.7105 52.5803 50.7072 52.7106 50.7105C54.3882 50.7268 56.0006 51.2936 57.3395 52.2545C57.6164 50.6909 58.9845 49.4954 60.6295 49.4954H63.7925C64.0987 48.9319 64.6949 48.5508 65.3757 48.5508C65.8741 48.5508 66.3301 48.7527 66.6559 49.0817C66.7797 49.2023 66.8839 49.3423 66.9653 49.4954H70.8515C71.604 49.4954 72.3043 49.7495 72.8646 50.173ZM74.6921 106.498C74.337 106.361 73.9819 106.224 73.6301 106.084C71.6659 105.296 69.669 104.325 68.3595 102.576C66.3366 99.8724 66.6005 96.2859 67.0402 92.846C67.3921 90.1455 67.7374 87.4484 68.0859 84.7512C65.5288 86.8066 62.2224 88.2367 58.2548 89.0087C56.6815 89.3181 54.9583 89.5266 52.9907 89.6569C52.981 89.6602 52.9777 89.6602 52.9679 89.6602H52.8767C52.8702 89.6602 52.8637 89.6602 52.8572 89.6569C50.8864 89.5266 49.1665 89.3181 47.5898 89.0087C43.6287 88.2399 40.3224 86.8066 37.7588 84.7512L38.8044 92.846C39.2474 96.2859 39.508 99.8724 37.4851 102.576C36.1756 104.325 34.1788 105.296 32.2145 106.084C31.8725 106.221 31.5272 106.355 31.1819 106.485C34.4915 109.163 37.7588 111.892 41.039 114.612C45.0132 117.912 49.1665 121.101 52.981 124.6C56.815 121.131 60.926 117.922 64.8968 114.609C68.1543 111.899 71.4053 109.172 74.6921 106.498ZM78.6629 107.863C77.6336 107.534 76.6042 107.189 75.5814 106.824C72.3369 109.713 69.0469 112.55 65.7698 115.398C61.8087 118.841 57.916 122.44 53.8084 125.711C53.6487 125.844 53.4826 125.968 53.3197 126.098C53.1829 126.225 53.0201 126.291 52.8572 126.304C52.7073 126.294 52.564 126.238 52.45 126.131C52.3197 126.03 52.1894 125.929 52.0656 125.825C47.8895 122.561 43.9805 118.877 39.9901 115.394C36.7294 112.554 33.4589 109.723 30.234 106.834C29.2339 107.192 28.2209 107.531 27.2143 107.853C31.8269 111.143 36.0844 115.062 40.4201 118.671C42.8697 120.707 45.3096 122.75 47.7462 124.799C48.9612 125.821 50.1795 126.848 51.3978 127.874C51.8962 128.287 52.4598 128.688 52.9907 129.121C53.5738 128.652 54.1862 128.212 54.7107 127.769C55.8606 126.802 57.0072 125.834 58.1571 124.87C60.5253 122.873 62.8967 120.88 65.278 118.896C69.6853 115.218 73.9982 111.241 78.6629 107.863ZM77.3697 49.8407C77.3306 49.8407 77.298 49.8407 77.2655 49.8407C76.969 49.8407 76.6759 49.8147 76.3925 49.7593H76.3892C75.5618 50.3391 74.7344 50.919 73.9103 51.4955C74.0894 51.9027 74.1904 52.3588 74.1904 52.8344V56.372C74.1904 59.5578 71.5975 62.1475 68.4116 62.1475H63.8251C60.2223 62.1475 57.2906 59.219 57.2906 55.6195V54.4338C56.1081 53.1927 54.4566 52.4142 52.7106 52.3979C52.4174 52.3946 52.121 52.4142 51.8311 52.4532H51.8278C51.0656 55.3296 50.502 58.2939 50.2707 61.2452C50.1372 62.9423 50.3359 64.5646 51.8148 65.6069C52.981 66.4278 54.4892 66.6526 55.8378 67.0305C56.8965 67.3269 56.1407 68.3758 55.3133 68.3009C51.9679 68.0012 48.655 66.3529 48.655 62.5905C48.655 59.2744 49.6486 55.8443 50.8441 52.6682C50.0101 52.9191 49.2316 53.3425 48.5573 53.8963V56.372C48.5573 59.5578 45.9611 62.1475 42.7753 62.1475H38.192C34.586 62.1475 31.6542 59.219 31.6542 55.6195V52.8344C31.6542 52.3588 31.7585 51.9027 31.9376 51.4955C30.7584 50.6714 29.5825 49.844 28.4033 49.0199C28.7909 53.4077 29.3349 57.802 30.0222 62.1247C30.0255 62.1377 30.0288 62.154 30.0288 62.167C30.2926 63.7925 30.5728 65.4343 30.8757 67.0402C31.1526 68.5452 31.4099 69.77 31.677 70.8906C32.9475 76.1742 34.7423 79.8519 37.319 82.4612C37.3353 82.4774 37.3548 82.4937 37.3679 82.5133C37.521 82.6664 37.6871 82.8292 37.8793 83.0084C38.0356 83.1485 38.192 83.282 38.3516 83.4189C40.7752 85.458 43.974 86.8718 47.8602 87.6308C49.3717 87.924 51.0265 88.1292 52.9223 88.253C54.8182 88.1292 56.4762 87.924 57.9845 87.6308C61.8153 86.8848 64.9783 85.5004 67.3855 83.5101C67.5712 83.3602 67.7602 83.1973 67.9654 83.0051C68.1804 82.8097 68.3595 82.6371 68.5191 82.4709C71.1023 79.8519 72.8972 76.1742 74.1676 70.8906C74.438 69.7733 74.6888 68.5485 74.9722 67.0402C75.2524 65.532 75.5195 63.9945 75.7638 62.4733C75.7638 62.4667 75.767 62.4602 75.767 62.4505C76.4348 58.3004 76.9756 54.0624 77.3697 49.8407ZM79.4643 72.7604C80.9139 69.8254 81.9139 66.7243 82.4514 63.5254C81.5491 63.7567 80.6305 63.8772 79.7249 63.8772C78.7998 63.8772 77.8877 63.7534 77.0212 63.5091C76.8127 64.773 76.5879 66.0467 76.3566 67.2976C76.07 68.8319 75.8126 70.0762 75.539 71.2163C74.7116 74.6562 73.2099 79.6109 69.6951 83.2788L69.6886 83.3472C69.9785 83.2951 70.2717 83.2201 70.5518 83.1159C72.3109 82.4742 73.7246 81.0344 74.7605 79.8487C76.6238 77.715 78.2069 75.3305 79.4643 72.7604ZM85.0606 41.5765C85.3603 38.4428 84.7903 35.257 84.1941 32.55C83.686 30.2568 83.054 27.8462 81.8357 25.781C80.5392 23.5659 78.7085 22.0349 76.6856 21.4811C74.9071 20.9892 72.9102 21.3769 71.5942 22.4616C71.591 22.4649 71.591 22.4649 71.5877 22.4681C71.5844 22.4714 71.5844 22.4714 71.5812 22.4746C71.5519 22.4975 71.5193 22.5203 71.4835 22.5398C71.4509 22.5593 71.415 22.5789 71.376 22.5887L71.3694 22.5919C71.3336 22.6049 71.2945 22.6147 71.2554 22.618C71.2163 22.6278 71.1772 22.631 71.1382 22.631H71.1219C71.0763 22.631 71.0307 22.6245 70.9883 22.6147C70.8385 22.5821 70.7017 22.5007 70.5974 22.3769C70.5942 22.3737 70.5942 22.3737 70.5909 22.3704C70.5681 22.3444 70.5486 22.315 70.5323 22.2857C70.5257 22.2792 70.5225 22.2694 70.5192 22.2629C70.4997 22.2336 70.4899 22.2043 70.4801 22.175C70.4736 22.1619 70.4671 22.1489 70.4639 22.1359C70.4573 22.1066 70.4476 22.0772 70.4443 22.0447C70.4378 22.0088 70.4345 21.9697 70.4345 21.9307V21.9176C70.4378 21.7091 70.4345 21.4941 70.428 21.2824C69.6527 21.517 68.9491 21.986 68.4051 22.6017C70.8938 22.5105 73.4249 23.7711 75.2165 25.4422C77.8323 27.8853 79.246 31.2894 80.3275 34.6283C80.5099 35.1886 79.3633 35.4981 79.1516 34.9834C77.9952 32.1624 76.7703 29.2763 74.6595 27.0188C72.7636 24.9992 70.3108 23.9275 67.6266 23.8298C67.5647 23.9763 67.5093 24.1294 67.4637 24.2793C68.125 24.8135 68.7667 25.3673 69.3693 25.9471C69.4573 26.0318 69.5192 26.1393 69.5518 26.2501C73.1448 30.2079 74.9527 35.8043 74.2262 41.1009C74.1774 41.4495 74.1188 41.8013 74.0601 42.1563C73.8093 43.7102 73.5682 45.176 74.1253 46.4399C74.4445 47.1696 75.0699 47.7625 75.8126 48.1045C76.6563 47.5182 77.5 46.9253 78.3437 46.3357C79.1027 45.2347 79.8747 44.3747 80.7282 43.6841C81.9856 42.6613 83.5198 42.0163 85.0281 41.8925C85.0411 41.7948 85.0509 41.6873 85.0606 41.5765ZM90.24 50.3685C90.3215 48.9026 90.2465 45.3226 87.7774 43.847C87.165 43.4756 86.4451 43.2834 85.647 43.2769H85.6079C84.2626 43.2769 82.7706 43.834 81.6175 44.7754C81.1712 45.1369 80.7445 45.5572 80.3275 46.0523C79.8682 46.593 79.4219 47.2185 78.9724 47.9547C78.9626 47.9644 78.9561 47.9775 78.9463 47.9938C78.917 48.3586 78.8877 48.7267 78.8519 49.0948V49.1143C78.4642 53.4598 77.9235 57.8281 77.2492 62.1117C79.0636 62.6687 81.1549 62.5775 83.0671 61.8543C83.8163 61.5742 84.5101 61.2028 85.1323 60.7566C88.0868 58.6327 89.999 54.7465 90.24 50.3685ZM99.4978 118.691C97.7387 116.502 95.3477 114.521 92.7059 113.088C89.1129 111.124 85.0965 109.876 81.2135 108.668C80.6891 108.505 80.1614 108.339 79.6304 108.169C77.6368 110.13 75.4413 111.912 73.3402 113.756C71.0209 115.782 68.6853 117.782 66.3529 119.792C63.9489 121.867 61.5384 123.935 59.1213 125.997C57.9845 126.968 56.8476 127.939 55.7107 128.913C55.2091 129.34 54.7107 129.815 54.1927 130.268C53.7628 130.649 53.3132 131.007 52.8376 131.307C52.4207 131.053 52.0233 130.74 51.6389 130.408C51.0232 129.88 50.4434 129.297 49.8733 128.809C48.7332 127.835 47.5963 126.861 46.4562 125.883C44.1076 123.873 41.7622 121.86 39.4233 119.834C37.0161 117.753 34.6023 115.678 32.2113 113.57C30.1949 111.801 28.0873 110.081 26.1914 108.179C25.667 108.345 25.1491 108.508 24.6311 108.668C20.7515 109.876 16.735 111.124 13.1387 113.085C10.5002 114.521 8.10917 116.502 6.34688 118.691C14.5264 131.675 32.7325 140.044 52.9223 140.044C73.1122 140.044 91.3215 131.675 99.4978 118.691ZM101.048 118.512C101.058 118.544 101.061 118.58 101.065 118.613C101.065 118.639 101.061 118.662 101.061 118.684C101.058 118.707 101.061 118.727 101.058 118.746C101.055 118.779 101.045 118.811 101.035 118.841C101.032 118.857 101.032 118.867 101.026 118.877C101.016 118.906 101.003 118.935 100.99 118.961C100.98 118.978 100.977 118.991 100.97 119.004C100.967 119.007 100.964 119.013 100.964 119.017C92.6636 132.643 73.806 141.451 52.9223 141.451C32.0419 141.451 13.1843 132.643 4.88101 119.017C4.88101 119.013 4.88101 119.007 4.87775 119.004C4.86798 118.987 4.86147 118.974 4.85495 118.958C4.84192 118.932 4.82889 118.906 4.81912 118.877C4.81586 118.863 4.8126 118.847 4.80935 118.834C4.79957 118.805 4.79306 118.776 4.7898 118.749C4.78329 118.72 4.78329 118.694 4.78329 118.671C4.78329 118.648 4.78003 118.632 4.78003 118.616C4.78329 118.574 4.7898 118.534 4.79632 118.499C4.79957 118.492 4.79957 118.486 4.79957 118.482C4.80935 118.453 4.81912 118.424 4.83215 118.398C4.83866 118.381 4.84192 118.365 4.84844 118.352C4.85495 118.339 4.86472 118.323 4.8745 118.306C4.88753 118.28 4.90381 118.254 4.92336 118.228C4.92662 118.228 4.92662 118.225 4.92662 118.225C6.82573 115.727 9.50663 113.463 12.4644 111.85C16.1812 109.824 20.2661 108.554 24.2142 107.322C25.8071 106.827 27.4358 106.319 29.0417 105.762C29.3317 105.661 29.6183 105.56 29.905 105.456C30.5044 105.237 31.1037 105.013 31.6933 104.778C33.4621 104.068 35.2538 103.205 36.358 101.732C38.065 99.4522 37.8141 96.1784 37.407 93.0252L36.2733 84.2397C32.5044 83.0084 28.9603 80.3764 26.4781 76.956C25.7517 75.9592 25.0872 74.8777 24.4943 73.7441C24.4845 73.7246 24.4748 73.7083 24.465 73.6888C22.7776 70.4541 21.5821 66.6819 20.7091 61.8283C19.8361 61.2582 19.0706 60.5709 18.4419 59.7826C15.7936 56.4665 15.2724 51.388 17.1519 47.1468C17.4875 46.3878 17.8556 45.7493 18.2725 45.2021C17.9761 43.7265 17.6536 42.3941 17.292 41.1498C15.4971 40.0748 13.9303 38.6513 12.7348 37.0291C10.9432 34.5827 10.3601 31.9832 11.1451 29.8984C11.9953 27.628 14.1062 26.4423 16.1454 25.2956C16.7154 24.9764 17.2562 24.6734 17.7676 24.3477C21.0674 22.2499 23.2858 19.0348 25.6312 15.6242C26.8397 13.8716 28.0873 12.0572 29.488 10.422C33.7553 5.45432 39.723 2.06002 45.8601 1.10884C52.3523 0.105534 59.1474 1.84503 64.0434 5.77029C68.5908 9.41216 71.49 15.0183 71.8125 20.6505C73.3663 19.8524 75.3045 19.6374 77.0603 20.1227C79.4415 20.7775 81.5686 22.5365 83.054 25.0709C84.3668 27.3022 85.0378 29.8398 85.5688 32.2471C86.191 35.0583 86.7838 38.3809 86.4646 41.7133C86.4548 41.7882 86.4516 41.8599 86.4418 41.9251C87.1878 42.026 87.8816 42.2671 88.5038 42.6417C91.6277 44.5115 91.7417 48.7234 91.6473 50.4466C91.3801 55.2482 89.2497 59.5252 85.9564 61.8999C85.3408 62.3397 84.6665 62.711 83.9563 63.0107C83.4286 66.6135 82.3504 70.099 80.7282 73.3826C79.4154 76.0635 77.7639 78.5489 75.8192 80.7738C74.6725 82.0865 73.0926 83.6892 71.0339 84.4417C70.542 84.6176 70.0208 84.7349 69.4996 84.7935C69.1446 87.5396 68.7928 90.2824 68.4377 93.0252C68.0338 96.1784 67.7797 99.4522 69.4866 101.732C70.5909 103.205 72.3825 104.068 74.1546 104.778C74.7474 105.016 75.3533 105.244 75.9625 105.465C76.2329 105.563 76.5065 105.658 76.7801 105.755C78.3926 106.312 80.0311 106.824 81.6305 107.322C85.5818 108.554 89.6635 109.824 93.3835 111.85C96.3413 113.463 99.0189 115.727 100.921 118.225C100.921 118.225 100.921 118.228 100.925 118.228C100.944 118.254 100.957 118.284 100.973 118.313C100.983 118.326 100.993 118.339 100.996 118.352C101.006 118.368 101.013 118.385 101.016 118.404C101.029 118.43 101.039 118.456 101.045 118.482C101.048 118.492 101.048 118.505 101.048 118.512Z" fill="black"/>
<path d="M18.9957 42.0456C19.1586 42.6677 19.3117 43.316 19.4583 43.9935C19.6114 43.873 19.7677 43.7655 19.9274 43.6678C20.4583 43.3453 21.0577 43.1205 21.6929 42.9967C20.7743 42.759 19.8687 42.4397 18.9957 42.0456ZM25.7126 43.5114C26.0189 43.645 26.3153 43.8079 26.6085 43.9903C26.5987 43.8242 26.5889 43.6515 26.5791 43.4821C26.2925 43.5017 26.0058 43.5114 25.7126 43.5114ZM26.615 60.105C27.0547 60.0985 27.615 59.5382 27.045 59.2223C25.8625 58.574 24.5432 58.4242 23.667 57.2808C23.2695 56.7629 22.921 56.0071 23.0383 55.3361C23.2076 54.3458 24.2142 53.3392 25.2273 54.0917C25.7322 54.4729 26.7062 54.0917 26.413 53.3849C25.5921 51.4141 25.6508 48.554 23.5041 47.4009C22.2597 46.7298 20.5821 47.0523 19.9143 48.3488C19.6602 48.8407 20.5105 48.9938 20.745 48.6061C22.0252 46.4855 23.8917 49.1501 24.25 50.401C24.465 51.147 24.579 51.9125 24.7452 52.6617C23.2956 52.5737 21.8102 53.5836 21.5659 55.1602C21.1522 57.8965 24.0872 60.1604 26.615 60.105ZM26.8984 47.9677C27.2795 52.5803 27.8333 57.2091 28.5434 61.7663C26.3967 62.4439 23.8298 62.0888 21.7125 60.8021C20.8623 60.2809 20.1326 59.6425 19.543 58.903C17.2106 55.9876 16.7676 51.4923 18.4387 47.7136C18.771 46.9611 19.1521 46.3324 19.569 45.834C19.5723 45.8308 19.5723 45.8308 19.5756 45.8275C19.9013 45.4301 20.2694 45.1109 20.6603 44.8698C21.833 44.1564 23.4748 44.0978 24.9504 44.7134C25.5237 44.948 26.0775 45.2868 26.6085 45.7167C26.6475 45.7428 26.6899 45.7786 26.729 45.8112C26.7811 46.5279 26.8365 47.2478 26.8984 47.9677ZM29.4881 67.2976C29.234 65.9359 28.9929 64.5548 28.7682 63.1703C27.9766 63.3983 27.1427 63.5091 26.2957 63.5091C24.9569 63.5091 23.5855 63.2322 22.2988 62.6817C23.123 66.8382 24.2142 70.1381 25.6866 72.9884C25.6964 73.0047 25.7094 73.0242 25.7159 73.0405C26.2827 74.135 26.9244 75.1741 27.615 76.1286C29.6249 78.8942 32.3742 81.1028 35.3483 82.3862C32.4035 78.8421 31.0679 74.3858 30.309 71.2163C30.0353 70.0729 29.7715 68.8286 29.4881 67.2976ZM46.8667 53.1633V52.8343C46.8667 51.9255 46.1273 51.1861 45.2152 51.1861H42.2769V56.7335C42.2769 57.7303 41.4626 58.5447 40.469 58.5447C39.4722 58.5447 38.6579 57.7303 38.6579 56.7335V51.1861H34.9965C34.7847 51.1861 34.5828 51.2251 34.3971 51.3001C33.8857 51.4988 33.498 51.945 33.3808 52.4923C33.358 52.5998 33.3449 52.7171 33.3449 52.8343V55.6195C33.3449 58.2874 35.5177 60.4568 38.1921 60.4568H42.7753C45.0328 60.4568 46.8667 58.6261 46.8667 56.372V53.1633ZM55.8769 16.748C52.3132 15.1127 48.4173 15.3114 45.9416 17.2594C44.2607 18.5885 43.1011 20.7384 42.404 23.82C42.9121 23.9242 43.4887 23.8786 43.8731 23.5431C44.0914 23.3541 44.2738 23.061 44.466 22.7515C44.808 22.2043 45.1924 21.5821 45.9318 21.2954C47.1469 20.8101 48.2609 21.5918 49.16 22.2173C50.0102 22.8134 50.5607 23.162 50.9711 22.9144C51.2806 22.7287 51.4174 22.214 51.564 21.67C51.7692 20.9273 52.0168 20.0022 52.8898 19.5559C54.3622 18.8034 55.8346 20.24 56.3134 20.7123C56.903 21.2922 57.6685 21.7515 58.0497 21.4811C58.1343 21.4225 58.2288 21.3052 58.3298 21.1847C58.4796 20.999 58.6458 20.7905 58.8966 20.6179C59.6817 20.0739 60.6003 20.2726 61.3234 20.5592C59.6817 19.0575 57.8868 17.6698 55.8769 16.748ZM63.1672 6.86804C58.5709 3.19035 52.1829 1.55509 46.0752 2.49976C40.2671 3.40208 34.6088 6.62373 30.5598 11.3406C29.2014 12.9172 27.9766 14.699 26.7909 16.4222C24.4683 19.797 22.0643 23.2857 18.5234 25.5367C17.9794 25.882 17.3996 26.2077 16.836 26.5237C14.9336 27.5954 13.1323 28.6052 12.4645 30.3968C11.5915 32.7129 13.1583 35.2244 13.875 36.1951C15.0021 37.7392 16.5168 39.0845 18.2432 40.078C20.9828 41.6612 24.1523 42.3518 27.1655 42.0228C27.1785 42.0228 27.1915 42.0195 27.2046 42.0195C27.3577 42.0065 27.5075 41.9837 27.6541 41.9641C32.8172 41.2117 37.4624 37.4069 39.2149 32.4979C39.8469 30.7356 40.127 28.9016 40.4202 26.9602C40.5635 26.0416 40.7101 25.0904 40.8958 24.1555C40.8958 24.149 40.899 24.1131 40.9023 24.1066C41.6482 20.3801 43.0131 17.7806 45.0686 16.1551C47.9547 13.8814 52.4272 13.6143 56.4665 15.471C59.6035 16.9076 62.1801 19.3312 64.4636 21.6407C64.3757 20.9957 64.2975 20.3573 64.1477 19.7807C63.7307 18.1487 63.1248 16.559 62.3463 15.0573C60.7859 12.0572 58.6588 9.3991 56.0235 7.27523C55.6391 6.96251 56.3492 6.53578 56.6685 6.74751C59.6654 8.73784 62.1671 11.3666 63.8968 14.5361C64.721 16.0509 65.3855 17.6633 65.8611 19.3246C66.164 20.3768 66.5419 21.6733 66.5321 22.8688C67.3139 21.3866 68.7212 20.2433 70.3336 19.8524C69.7994 14.9108 67.1673 10.0767 63.1672 6.86804ZM72.464 52.4923C72.35 51.945 71.9591 51.4988 71.4509 51.3001C71.2653 51.2251 71.0633 51.1861 70.8516 51.1861H67.1869V56.7335C67.1869 57.7303 66.3758 58.5447 65.3757 58.5447C64.3822 58.5447 63.5678 57.7303 63.5678 56.7335V51.1861H60.6296C59.7207 51.1861 58.9813 51.9255 58.9813 52.8343V55.6195C58.9813 55.7465 58.9846 55.8736 58.9976 55.9974C59.1898 58.4893 61.2778 60.4568 63.8252 60.4568H68.4117C70.6659 60.4568 72.4998 58.6261 72.4998 56.372V52.8343C72.4998 52.7171 72.4901 52.5998 72.464 52.4923ZM45.5507 42.8893C45.5507 40.7426 43.3584 39.0031 40.6547 39.0031C37.951 39.0031 35.762 40.7426 35.762 42.8893C35.762 45.0327 37.951 44.0163 40.6547 44.0163C43.3584 44.0163 45.5507 45.0327 45.5507 42.8893ZM70.0828 42.8893C70.0828 40.7426 67.897 39.0031 65.19 39.0031C62.4863 39.0031 60.2941 40.7426 60.2941 42.8893C60.2941 45.0327 62.4863 44.0163 65.19 44.0163C67.897 44.0163 70.0828 45.0327 70.0828 42.8893ZM74.5325 49.0035C73.9787 49.3944 73.4184 49.7821 72.8647 50.173C72.3044 49.7495 71.604 49.4954 70.8516 49.4954H66.9654C66.8839 49.3423 66.7797 49.2022 66.6559 49.0817C66.3302 48.7527 65.8741 48.5508 65.3757 48.5508C64.6949 48.5508 64.0988 48.9319 63.7926 49.4954H60.6296C58.9846 49.4954 57.6164 50.6909 57.3395 52.2545C56.0007 51.2935 54.3882 50.7267 52.7106 50.7105C52.5803 50.7072 52.4468 50.7105 52.3132 50.717C52.4142 50.3847 51.7888 50.2968 51.6748 50.5704C51.6487 50.6388 51.6194 50.7105 51.5901 50.7789C50.4662 50.9352 49.3913 51.3326 48.4303 51.9222C48.0329 50.5248 46.7429 49.4954 45.2152 49.4954H42.0587C41.7525 48.9319 41.1498 48.5508 40.469 48.5508C39.785 48.5508 39.1888 48.9319 38.8794 49.4954H34.9965C34.2407 49.4954 33.5436 49.7495 32.9833 50.173C31.3937 49.0589 29.8073 47.9481 28.2177 46.8341C28.1818 46.378 28.1492 45.922 28.1134 45.4659C28.1134 45.4464 28.1134 45.4301 28.1102 45.4171C28.1102 45.404 28.1102 45.3877 28.1069 45.378C28.0678 44.7623 28.0222 44.0619 27.9799 43.3323C33.5958 42.469 38.6318 38.3158 40.5407 32.9702C41.2183 31.0809 41.5212 29.0938 41.8144 27.1719C41.9154 26.5204 42.0229 25.8559 42.1369 25.1979C43.1271 25.3998 44.1239 25.1914 44.795 24.6083C45.1761 24.276 45.4367 23.8623 45.6647 23.4942C45.9188 23.0773 46.1468 22.7222 46.4498 22.5984C46.9254 22.4127 47.5117 22.7841 48.3521 23.3704C49.2935 24.035 50.4695 24.8526 51.6911 24.1229C52.4924 23.6441 52.7334 22.7515 52.9256 22.0349C53.1048 21.3736 53.2351 20.9599 53.5315 20.8101C53.9094 20.6146 54.5153 20.9208 55.3297 21.7221C56.6164 22.9795 57.9063 23.3118 58.864 22.6277C59.1051 22.4583 59.2712 22.2531 59.4211 22.0707C59.522 21.9469 59.6165 21.8329 59.7012 21.771C59.9422 21.6016 60.4146 21.6765 61.0954 21.9925C62.5417 22.6603 63.9294 23.4584 65.2389 24.3737C65.291 24.4324 65.3529 24.4812 65.4344 24.5106C65.708 24.706 65.9751 24.9047 66.239 25.1067C66.4409 25.2663 66.6461 25.4259 66.8416 25.5888C66.8709 25.6214 66.897 25.6474 66.9295 25.6767C71.2848 29.3121 73.6009 35.2896 72.8288 40.9087C72.7832 41.2475 72.7279 41.5895 72.6692 41.9316C72.3956 43.6189 72.1122 45.3617 72.8321 47.0034C73.1937 47.8211 73.7898 48.5084 74.5325 49.0035ZM68.3596 102.576C66.3367 99.8723 66.6005 96.2859 67.0403 92.846C67.3921 90.1455 67.7374 87.4483 68.086 84.7511C65.5288 86.8066 62.2225 88.2366 58.2549 89.0087C56.6815 89.3181 54.9583 89.5266 52.9908 89.6569C52.981 89.6601 52.9778 89.6601 52.968 89.6601H52.8768C52.8703 89.6601 52.8637 89.6601 52.8572 89.6569C50.8865 89.5266 49.1665 89.3181 47.5899 89.0087C43.6288 88.2399 40.3224 86.8066 37.7588 84.7511L38.8045 92.846C39.2475 96.2859 39.5081 99.8723 37.4852 102.576C36.1757 104.325 34.1788 105.296 32.2146 106.084C31.8725 106.221 31.5273 106.355 31.182 106.485C34.4916 109.163 37.7588 111.892 41.0391 114.612C45.0132 117.912 49.1665 121.101 52.981 124.6C56.8151 121.131 60.926 117.922 64.8969 114.609C68.1544 111.899 71.4053 109.172 74.6921 106.498C74.3371 106.361 73.982 106.224 73.6302 106.084C71.6659 105.296 69.6691 104.325 68.3596 102.576ZM65.7699 115.397C61.8088 118.841 57.9161 122.44 53.8084 125.711C53.6488 125.844 53.4827 125.968 53.3198 126.098C53.183 126.225 53.0201 126.291 52.8572 126.304C52.7074 126.294 52.5641 126.238 52.45 126.131C52.3197 126.03 52.1894 125.929 52.0657 125.825C47.8896 122.561 43.9806 118.876 39.9902 115.394C36.7294 112.554 33.4589 109.723 30.234 106.834C29.234 107.192 28.2209 107.531 27.2143 107.853C31.8269 111.143 36.0845 115.062 40.4202 118.671C42.8698 120.707 45.3096 122.75 47.7462 124.799C48.9613 125.821 50.1796 126.848 51.3979 127.874C51.8963 128.287 52.4598 128.688 52.9908 129.121C53.5739 128.652 54.1863 128.212 54.7107 127.769C55.8606 126.802 57.0073 125.834 58.1572 124.87C60.5253 122.873 62.8968 120.88 65.278 118.896C69.6854 115.218 73.9983 111.241 78.663 107.863C77.6336 107.534 76.6043 107.189 75.5814 106.824C72.337 109.713 69.0469 112.55 65.7699 115.397ZM63.6851 71.9362C63.9718 71.7896 64.2128 71.4313 63.9164 71.1511C63.6134 70.8645 63.229 70.7896 62.8544 70.6332C62.4896 70.4834 62.1867 70.2716 61.9 69.998C61.8674 69.9687 61.8348 69.9329 61.8023 69.9003C61.584 69.6723 61.4114 69.4182 61.2713 69.138L61.229 69.0533C61.0726 68.7276 61.0107 68.353 60.7729 68.0761C60.6459 67.923 60.3136 67.9197 60.1866 68.0826C59.6979 68.708 59.9129 69.6136 60.3103 70.3205C58.9064 72.3336 57.0626 74.0503 54.6 74.6269C51.5412 75.3435 48.2707 74.2588 46.0263 72.1219C45.808 71.9134 45.2771 72.1154 45.5116 72.4216C47.655 75.2556 51.2317 76.6661 54.7433 75.982C57.3688 75.4738 59.9683 73.7995 61.2224 71.402C61.9163 71.9688 62.8707 72.3532 63.6851 71.9362ZM77.2655 49.8407C77.2981 49.8407 77.3307 49.8407 77.3698 49.8407C76.9756 54.0624 76.4349 58.3004 75.7671 62.4504C75.7671 62.4602 75.7638 62.4667 75.7638 62.4732C75.5195 63.9945 75.2524 65.532 74.9723 67.0402C74.6889 68.5484 74.438 69.7732 74.1677 70.8905C72.8973 76.1742 71.1024 79.8519 68.5192 82.4709C68.3596 82.637 68.1804 82.8097 67.9654 83.0051C67.7602 83.1973 67.5713 83.3602 67.3856 83.51C64.9783 85.5004 61.8153 86.8848 57.9845 87.6307C56.4763 87.9239 54.8182 88.1291 52.9224 88.2529C51.0265 88.1291 49.3717 87.9239 47.8603 87.6307C43.9741 86.8717 40.772 85.458 38.3517 83.4188C38.1921 83.282 38.0357 83.1484 37.8793 83.0084C37.6871 82.8292 37.521 82.6663 37.3679 82.5132C37.3549 82.4937 37.3353 82.4774 37.319 82.4611C34.7424 79.8519 32.9475 76.1742 31.6771 70.8905C31.41 69.77 31.1526 68.5452 30.8758 67.0402C30.5728 65.4343 30.2927 63.7925 30.0288 62.167C30.0288 62.154 30.0256 62.1377 30.0223 62.1247C29.335 57.802 28.791 53.4077 28.4033 49.0198C29.5825 49.844 30.7585 50.6714 31.9377 51.4955C31.7585 51.9027 31.6543 52.3587 31.6543 52.8343V55.6195C31.6543 59.219 34.586 62.1475 38.1921 62.1475H42.7753C45.9611 62.1475 48.5574 59.5578 48.5574 56.372V53.8963C49.2317 53.3425 50.0102 52.919 50.8441 52.6682C49.6486 55.8442 48.6551 59.2744 48.6551 62.5905C48.6551 66.3529 51.9679 68.0012 55.3134 68.3009C56.1408 68.3758 56.8965 67.3269 55.8378 67.0304C54.4892 66.6526 52.981 66.4278 51.8148 65.6069C50.3359 64.5645 50.1372 62.9423 50.2708 61.2452C50.5021 58.2939 51.0656 55.3296 51.8279 52.4532H51.8311C52.121 52.4141 52.4175 52.3946 52.7106 52.3978C54.4567 52.4141 56.1082 53.1927 57.2907 54.4338V55.6195C57.2907 59.219 60.2224 62.1475 63.8252 62.1475H68.4117C71.5975 62.1475 74.1905 59.5578 74.1905 56.372V52.8343C74.1905 52.3587 74.0895 51.9027 73.9103 51.4955C74.7345 50.9189 75.5619 50.3391 76.3893 49.7593H76.3925C76.6759 49.8147 76.9691 49.8407 77.2655 49.8407ZM79.7249 63.8772C78.7998 63.8772 77.8877 63.7534 77.0212 63.5091C76.8127 64.773 76.588 66.0467 76.3567 67.2976C76.07 68.8318 75.8127 70.0762 75.5391 71.2163C74.7117 74.6562 73.21 79.6108 69.6951 83.2787L69.6886 83.3472C69.9785 83.295 70.2717 83.2201 70.5519 83.1159C72.3109 82.4742 73.7247 81.0343 74.7605 79.8486C76.6238 77.715 78.2069 75.3305 79.4643 72.7603C80.9139 69.8254 81.914 66.7242 82.4514 63.5254C81.5491 63.7567 80.6305 63.8772 79.7249 63.8772ZM81.8358 25.781C80.5393 23.5659 78.7086 22.0381 76.6857 21.4811C74.9071 20.9892 72.9103 21.3769 71.5943 22.4616C71.591 22.4649 71.591 22.4649 71.5877 22.4681C71.5845 22.4714 71.5845 22.4714 71.5812 22.4746C71.5519 22.4974 71.5193 22.5202 71.4835 22.543C71.4509 22.5626 71.4151 22.5789 71.376 22.5886L71.3695 22.5919C71.3337 22.6049 71.2946 22.6147 71.2555 22.618C71.2164 22.6277 71.1773 22.631 71.1382 22.631H71.1219C71.0763 22.631 71.0307 22.6277 70.9884 22.6147C70.8385 22.5821 70.7017 22.5007 70.5975 22.3769C70.5942 22.3769 70.5942 22.3769 70.591 22.3736C70.5682 22.3443 70.5486 22.315 70.5323 22.2857C70.5258 22.2792 70.5225 22.2694 70.5193 22.2629C70.4997 22.2336 70.49 22.2075 70.4802 22.1749C70.4737 22.1619 70.4672 22.1489 70.4639 22.1358C70.4574 22.1065 70.4476 22.0772 70.4444 22.0446C70.4379 22.0088 70.4346 21.9697 70.4346 21.9306V21.9176C70.4379 21.7091 70.4346 21.4941 70.4281 21.2824C69.6528 21.5202 68.9492 21.986 68.4052 22.6017C70.8939 22.5105 73.425 23.7711 75.2166 25.4422C77.8323 27.8853 79.2461 31.2894 80.3276 34.6283C80.51 35.1886 79.3633 35.498 79.1516 34.9833C77.9952 32.1624 76.7704 29.2762 74.6595 27.0188C72.7637 24.9992 70.3108 23.9307 67.6266 23.8297C67.5648 23.9763 67.5094 24.1294 67.4638 24.2825C68.125 24.8135 68.7668 25.3673 69.3694 25.9471C69.4574 26.0318 69.5192 26.1393 69.5518 26.2533C73.1448 30.2111 74.9527 35.8042 74.2263 41.1009C74.1774 41.4494 74.1188 41.8013 74.0602 42.1563C73.8093 43.7101 73.5683 45.1793 74.1253 46.4432C74.4446 47.1696 75.07 47.7624 75.8127 48.1045C76.6564 47.5181 77.5001 46.9253 78.3438 46.3389C79.1028 45.2346 79.8748 44.3747 80.7282 43.6841C81.9856 42.6612 83.5199 42.0162 85.0281 41.8925C85.0379 41.7947 85.0509 41.6872 85.0607 41.5765C85.3604 38.4428 84.7903 35.257 84.1942 32.5533C83.686 30.2567 83.0541 27.8462 81.8358 25.781ZM86.9012 48.0393C87.2595 48.0882 87.6113 47.6517 87.2465 47.4074C85.7252 46.3813 83.9629 47.6647 82.9335 48.8081C81.4416 50.4596 80.6012 52.577 80.3471 54.7628C80.2689 55.4208 81.1843 55.4599 81.5621 55.1797C82.0833 54.7986 83.5818 53.5868 83.8717 55.3882C83.9401 55.7986 83.6176 56.4469 83.445 56.802C82.9303 57.8639 82.028 58.5805 81.2071 59.3916C80.8292 59.763 81.4318 60.0431 81.7478 59.9519C83.6763 59.4014 85.546 57.0365 85.3506 54.981C85.1649 53.0135 83.4613 53.0298 82.0215 53.5738C82.6013 51.072 84.2235 47.6517 86.9012 48.0393ZM87.7774 43.847C90.2466 45.3226 90.3215 48.9026 90.2401 50.3684C89.999 54.7465 88.0869 58.6327 85.1323 60.7565C84.5102 61.2028 83.8163 61.5742 83.0671 61.8543C81.155 62.5775 79.0637 62.6687 77.2492 62.1116C77.9235 57.8281 78.4643 53.4598 78.8519 49.1143V49.0947C78.8878 48.7267 78.9171 48.3586 78.9464 47.9937C78.9562 47.9774 78.9627 47.9644 78.9725 47.9546C79.422 47.2184 79.8683 46.593 80.3276 46.0523C80.7445 45.5571 81.1712 45.1369 81.6175 44.7753C82.7707 43.8339 84.2626 43.2769 85.6079 43.2769H85.647C86.4451 43.2834 87.165 43.4756 87.7774 43.847Z" fill="white"/>
</g>
<defs>
<filter id="filter0_d" x="0.780029" y="0.830078" width="104.285" height="148.621" filterUnits="userSpaceOnUse" color-interpolation-filters="sRGB">
<feFlood flood-opacity="0" result="BackgroundImageFix"/>
<feColorMatrix in="SourceAlpha" type="matrix" values="0 0 0 0 0 0 0 0 0 0 0 0 0 0 0 0 0 0 127 0"/>
<feOffset dy="4"/>
<feGaussianBlur stdDeviation="2"/>
<feColorMatrix type="matrix" values="0 0 0 0 0 0 0 0 0 0 0 0 0 0 0 0 0 0 0.25 0"/>
<feBlend mode="normal" in2="BackgroundImageFix" result="effect1_dropShadow"/>
<feBlend mode="normal" in="SourceGraphic" in2="effect1_dropShadow" result="shape"/>
</filter>
</defs>
</svg>
