<svg width="128" height="157" viewBox="0 0 128 157" fill="none" xmlns="http://www.w3.org/2000/svg">
<g filter="url(#filter0_d)">
<path fill-rule="evenodd" clip-rule="evenodd" d="M65.2024 59.6172C65.8296 58.0136 66.2312 56.2586 66.641 54.4679C67.2489 51.7914 67.8789 49.0352 69.3395 46.6063C70.8029 44.1719 73.0997 42.0731 77.036 40.7335C77.0965 40.7115 77.1433 40.6675 77.1681 40.618C77.1956 40.563 77.2011 40.4997 77.1818 40.4419C77.1598 40.3814 77.1158 40.3347 77.0663 40.3072C77.0113 40.2824 76.9507 40.2769 76.8902 40.2962C72.8302 41.6825 70.47 43.8226 68.9681 46.2982C67.4662 48.7821 66.8198 51.6154 66.1927 54.3634C65.7938 56.1101 65.4032 57.821 64.798 59.3834C64.1929 60.9541 63.3677 62.3707 62.1078 63.5178C61.5494 64.0266 60.9168 64.4227 60.2401 64.7116C59.5277 65.0169 58.763 65.2067 57.979 65.2865L57.9322 65.292C57.7479 65.3085 57.5636 65.3222 57.3793 65.3277C57.1923 65.3332 57.0052 65.336 56.8182 65.3305C55.7647 65.3002 54.7029 65.0939 53.7099 64.7308C52.7196 64.3705 51.7954 63.8506 51.0087 63.2069C50.7776 63.0171 50.5658 62.8246 50.3677 62.6265C50.1669 62.4285 49.9827 62.2277 49.8121 62.0241L49.7929 61.9994C49.46 61.5978 49.1794 61.1796 48.9456 60.7478C48.7091 60.3159 48.5193 59.8703 48.3625 59.4137C48.1232 58.704 47.9664 57.9613 47.8618 57.1801C47.7573 56.4016 47.7023 55.5874 47.6665 54.7402C47.6088 53.3208 47.672 51.9537 47.8453 50.6389C48.0269 49.291 48.3212 47.9982 48.7228 46.7686C49.1327 45.5088 49.6581 44.3095 50.2825 43.1789C50.9206 42.0264 51.6661 40.9426 52.5023 39.9358C53.7429 38.4422 55.187 37.1108 56.8017 35.9583C58.4356 34.792 60.2456 33.8072 62.1876 33.0205C64.1351 32.231 66.2174 31.6424 68.3905 31.2683C70.5388 30.8997 72.7779 30.7401 75.0665 30.8034C77.6054 30.8777 80.1223 31.4553 82.6062 32.0247L82.609 32.0275C83.8798 32.3191 85.1424 32.6079 86.4022 32.8307C87.6566 33.048 88.9081 33.1993 90.1515 33.2158C90.2147 33.2158 90.2642 33.2653 90.2642 33.3286C90.2642 33.3478 90.2615 33.3671 90.2505 33.3836C90.0744 33.7384 89.8956 34.107 89.7196 34.4866C89.5436 34.8635 89.3675 35.2568 89.1915 35.6612L89.1777 35.7024C89.175 35.7162 89.1722 35.7299 89.1722 35.7465C89.1502 36.3764 89.2135 36.954 89.3428 37.4767C89.4803 38.0268 89.6976 38.5137 89.9727 38.9345C90.2147 39.3031 90.5036 39.6195 90.8309 39.8808C91.161 40.1504 91.5323 40.3622 91.9257 40.5107C92.3163 40.6565 92.7316 40.7445 93.1553 40.772C93.5761 40.7968 94.0107 40.7583 94.4426 40.6592C94.9597 40.5355 95.4796 40.3237 95.9775 40.0128C96.4506 39.7157 96.9045 39.3306 97.3254 38.8548L97.3556 38.819L97.3749 38.7833L97.5399 38.4312L97.7187 38.0708C97.7462 38.0131 97.815 37.9883 97.8727 38.0186C97.8838 38.0241 97.892 38.0296 97.9003 38.0378C99.4737 39.3004 100.5 40.772 101.223 42.2492C101.949 43.7263 102.37 45.2034 102.736 46.488C102.975 47.3325 103.193 48.0972 103.457 48.7326C103.718 49.357 104.023 49.8604 104.441 50.1933C104.485 50.229 104.496 50.2923 104.469 50.3418C104.169 50.8727 103.823 51.3898 103.41 51.8794C103 52.3691 102.527 52.8284 101.977 53.2521C101.925 53.2906 101.894 53.3456 101.886 53.4034C101.881 53.4611 101.894 53.5216 101.933 53.5739C101.971 53.6234 102.026 53.6537 102.084 53.6619C102.142 53.6702 102.202 53.6537 102.255 53.6152C103.68 52.5231 104.604 51.2 105.264 49.8082C105.927 48.408 106.326 46.9281 106.705 45.5308C106.989 44.4773 107.264 43.4732 107.63 42.5848C107.998 41.6935 108.463 40.9233 109.126 40.3622C109.838 39.757 110.581 39.3196 111.332 39.0253C112.132 38.7117 112.944 38.5632 113.742 38.5577C114.592 38.5522 115.425 38.7062 116.209 38.9951C117.023 39.2949 117.785 39.7378 118.462 40.2934C119.422 41.0829 120.242 42.1144 120.888 43.3385C121.529 44.5488 121.997 45.9461 122.261 47.481C122.516 48.9609 122.582 50.5701 122.423 52.2535C122.274 53.8517 121.928 55.5187 121.353 57.2159C120.894 58.5802 120.297 59.8841 119.587 61.1081C118.866 62.3542 118.027 63.515 117.092 64.563C116.033 65.7569 114.85 66.8076 113.582 67.6796C112.339 68.5378 111.01 69.2228 109.629 69.6986C108.207 70.191 106.727 70.4661 105.228 70.4798C103.798 70.4936 102.351 70.2763 100.912 69.7894C100.027 69.4868 99.1408 69.0825 98.2634 68.5681C97.4216 68.0702 96.5882 67.4706 95.7712 66.7581C95.7327 66.7279 95.7217 66.6728 95.7382 66.6288C96.4946 64.7006 97.2318 62.5935 97.9525 60.3049C98.6732 58.0163 99.3746 55.5489 100.054 52.9082C100.071 52.8477 100.06 52.7844 100.029 52.7322C100.002 52.6827 99.9523 52.6441 99.8918 52.6276C99.8285 52.6111 99.768 52.6249 99.7185 52.6524C99.6662 52.6827 99.6277 52.7322 99.6112 52.7927C98.918 55.4801 98.2056 57.9806 97.4794 60.2884C96.7477 62.599 95.9995 64.7281 95.2293 66.6756L95.2183 66.7003C94.8194 67.7071 94.4178 68.6616 94.0107 69.5639C93.6009 70.4743 93.1855 71.3298 92.7674 72.1385C91.5516 74.4849 90.2917 76.4132 88.9907 77.9123C87.6868 79.4169 86.339 80.4952 84.9526 81.1471C84.6995 81.2654 84.4382 81.37 84.1714 81.4607C83.8991 81.5543 83.6185 81.634 83.3269 81.7028L83.2857 81.711C81.6545 82.0824 79.7895 82.0466 77.82 81.6973C75.6799 81.3232 73.4161 80.5778 71.1907 79.5875C68.3052 78.3001 65.4967 76.5975 63.1284 74.7407C60.793 72.9087 58.8867 70.9282 57.7534 69.044C57.7397 69.022 57.7342 68.9917 57.7397 68.9669L57.7809 68.5378L57.8305 68.1032C57.8745 67.7236 57.924 67.344 57.9762 66.9589C58.034 66.5793 58.0945 66.197 58.1578 65.8091C58.1688 65.7569 58.2128 65.7183 58.2651 65.7156C59.049 65.6138 59.8137 65.4048 60.5289 65.0857C61.2111 64.7803 61.8465 64.3732 62.4159 63.8588C63.728 62.665 64.578 61.2154 65.2024 59.6172ZM53.5503 65.1572C52.5106 64.7776 51.5423 64.2384 50.7198 63.5618C50.5796 63.4435 50.4448 63.328 50.3155 63.2069L50.3072 63.2042C50.178 63.0831 50.0542 62.9649 49.9386 62.8438C49.9194 62.8246 49.8974 62.8081 49.8671 62.8053C49.8039 62.7971 49.7461 62.8383 49.7378 62.9016C49.6608 63.4077 49.6003 63.9029 49.5618 64.3815C49.5178 64.8546 49.4958 65.3222 49.4958 65.7734C49.4903 66.3345 49.5233 66.8681 49.5865 67.3743C49.6498 67.8612 49.7433 68.3233 49.8754 68.7496C50.0184 69.2145 50.1724 69.5886 50.354 69.8994C50.5355 70.2158 50.7418 70.4633 50.9839 70.6696C51.2315 70.8787 51.5176 71.0492 51.8614 71.206C52.1997 71.3601 52.5903 71.5004 53.0387 71.6489C53.3825 71.7617 53.7401 71.8607 54.095 71.935C54.4196 72.001 54.7414 72.0478 55.0467 72.0643C55.3135 72.078 55.5721 72.0725 55.8087 72.0395C56.0315 72.0065 56.235 71.946 56.4138 71.8607C56.5266 71.8057 56.6284 71.7369 56.7192 71.6572C56.8072 71.5801 56.8842 71.4894 56.9447 71.3848C57.0052 71.2831 57.0575 71.1648 57.0933 71.03C57.1263 70.9062 57.1483 70.7687 57.1565 70.6174V70.6009C57.1703 70.3478 57.1868 70.0892 57.206 69.8279C57.2253 69.5583 57.2473 69.3025 57.2693 69.0577C57.2941 68.8927 57.3023 68.7111 57.3188 68.5433L57.3738 68.051C57.4151 67.6934 57.4619 67.3358 57.5114 66.9809C57.5609 66.6233 57.6187 66.2685 57.6764 65.9136V65.8861C57.6764 65.8229 57.6214 65.7761 57.5581 65.7789C57.4316 65.7844 57.3078 65.7899 57.1868 65.7899C57.0603 65.7926 56.9337 65.7926 56.8099 65.7899C55.7042 65.7569 54.5901 65.5395 53.5503 65.1572ZM103.303 137.782C102.128 138.266 100.778 138.604 99.3719 138.756C98.6897 138.827 97.9965 138.855 97.3006 138.835C96.6322 138.816 95.961 138.75 95.3036 138.637C95.2788 138.632 95.2513 138.635 95.2293 138.646C95.1715 138.676 95.1495 138.747 95.177 138.802C95.4631 139.347 95.7272 139.878 95.9747 140.395C96.2251 140.912 96.4644 141.424 96.6872 141.933C96.943 142.51 97.1823 143.082 97.4051 143.644C97.6252 144.202 97.8287 144.76 98.0158 145.308C98.0268 145.338 98.0515 145.366 98.0845 145.377C99.8065 146.048 101.594 146.557 103.451 146.898C105.308 147.242 107.233 147.42 109.225 147.431C111.17 147.448 113.178 147.305 115.249 147.005C117.32 146.708 119.458 146.254 121.661 145.646C121.683 145.641 121.702 145.63 121.719 145.613C121.76 145.566 121.76 145.495 121.713 145.451C120.828 144.612 119.769 143.908 118.624 143.275C117.485 142.645 116.253 142.078 115.021 141.512C113.384 140.758 111.739 140.002 110.273 139.083C108.815 138.167 107.528 137.086 106.598 135.677C106.593 135.669 106.584 135.661 106.576 135.653C106.527 135.611 106.455 135.62 106.416 135.669C106.378 135.716 106.331 135.766 106.284 135.821C106.24 135.867 106.194 135.917 106.144 135.969C105.448 136.684 104.461 137.306 103.303 137.782ZM95.7354 39.6222C95.2816 39.9056 94.8084 40.1009 94.3381 40.2109C93.9502 40.3017 93.5624 40.3347 93.1883 40.3127C92.8059 40.2906 92.4346 40.2136 92.088 40.0816C91.7386 39.9468 91.4085 39.7598 91.1142 39.5232C90.8281 39.2921 90.5696 39.0088 90.3523 38.6815C90.1075 38.3074 89.9149 37.87 89.7884 37.3776C89.6701 36.9128 89.6123 36.3929 89.6288 35.8262C89.6288 35.8125 89.6316 35.796 89.6371 35.7822C89.8104 35.3861 89.9864 35.001 90.1597 34.6297C90.333 34.2556 90.5063 33.8952 90.6769 33.5514C90.7346 33.4413 90.8832 33.18 90.9189 33.0783C91.0014 32.916 91.0895 32.7537 91.1775 32.5886C91.2655 32.4236 91.3535 32.264 91.4388 32.1155C91.4718 32.0577 91.5406 32.0385 91.5956 32.0687C91.6176 32.0825 91.6314 32.099 91.6396 32.1182C91.8294 32.4181 92.0412 32.7069 92.2723 32.982C92.5033 33.257 92.7591 33.5184 93.0342 33.7687C93.081 33.8099 93.1415 33.8292 93.1993 33.8265C93.257 33.8237 93.3148 33.7989 93.3561 33.7494C93.4001 33.7027 93.4193 33.6449 93.4166 33.5844C93.4138 33.5266 93.3863 33.4689 93.3396 33.4276C92.3961 32.5749 91.7139 31.5406 91.2958 30.3193C90.8777 29.1062 90.7181 27.7088 90.8226 26.1272C90.8749 25.3295 90.9932 24.4822 91.1802 23.5883C91.3645 22.6998 91.6149 21.7618 91.9339 20.7798V20.7715C92.2393 19.828 92.6024 18.846 93.0287 17.8227C93.4386 16.8325 93.9062 15.7982 94.4343 14.7254L94.3546 14.6787C94.2941 14.6429 94.2363 14.6044 94.1785 14.5631L94.1648 14.5494C94.1263 14.5191 94.0878 14.4889 94.052 14.4586C94.019 14.4283 93.9805 14.3926 93.9392 14.3541C93.6917 14.1148 93.4716 13.7984 93.279 13.3858C93.0892 12.9815 92.9297 12.4808 92.8032 11.8647C92.7784 11.7409 92.8059 11.6171 92.8692 11.5181C92.9352 11.4218 93.037 11.3503 93.1608 11.3255C93.2845 11.298 93.4056 11.3255 93.5046 11.3915C93.6009 11.4548 93.6751 11.5593 93.6999 11.6831C93.975 13.0337 94.4591 13.6691 95.0615 13.9415C95.6722 14.2165 96.4231 14.134 97.2126 14.046C98.5907 13.8947 100.065 13.7324 101.377 14.9262C101.941 15.4406 102.268 16.1861 102.483 17.0525C102.692 17.9108 102.788 18.8873 102.887 19.8748C103.011 21.1236 103.138 22.3972 103.506 23.4095C103.864 24.397 104.458 25.1342 105.514 25.3515C105.575 25.3625 105.616 25.4202 105.605 25.4835L105.286 27.2962C105.278 27.343 105.242 27.3788 105.198 27.3898C105.135 27.409 105.077 27.4448 105.022 27.4915C104.956 27.5493 104.895 27.6236 104.84 27.7116C104.785 27.7914 104.736 27.8849 104.692 27.9839C104.642 28.0939 104.596 28.2122 104.557 28.3305C104.469 28.5946 104.395 28.9137 104.331 29.2575C104.26 29.6481 104.208 30.0745 104.169 30.4898C104.15 30.6796 104.139 30.8667 104.122 31.0565C104.122 31.0785 104.114 31.1005 104.1 31.117C103.699 31.7276 103.25 32.264 102.761 32.7207C102.268 33.18 101.729 33.5651 101.146 33.8705C100.846 34.03 100.533 34.1675 100.208 34.2831C99.8808 34.4014 99.5452 34.4976 99.1958 34.5746L99.1876 34.5774C98.8465 34.6517 98.4917 34.7067 98.1258 34.7424C97.76 34.7782 97.3831 34.7947 96.998 34.792C96.932 34.792 96.8742 34.8167 96.8357 34.858C96.7917 34.8992 96.767 34.957 96.767 35.0203C96.767 35.0835 96.7917 35.1413 96.833 35.1826C96.8742 35.2238 96.932 35.2486 96.9953 35.2486C97.2648 35.2513 97.5317 35.2458 97.7957 35.2266C98.057 35.2101 98.3129 35.1881 98.5632 35.1523C98.6264 35.144 98.6842 35.1881 98.6925 35.2486C98.6952 35.2761 98.6897 35.3008 98.676 35.3228C98.5247 35.5897 98.3816 35.8455 98.2441 36.0903C98.1066 36.3434 97.9745 36.5854 97.8507 36.8192C97.727 37.053 97.6087 37.2869 97.4821 37.5207C97.3941 37.6967 97.3061 37.8728 97.2181 38.0488C97.1328 38.2249 97.053 38.3899 96.9788 38.5467C96.9733 38.5549 96.9705 38.5659 96.9623 38.5742C96.5799 39.0061 96.1645 39.3527 95.7354 39.6222ZM93.6229 25.2029C93.6311 25.1809 93.6449 25.1589 93.6641 25.1397C93.9805 24.7931 94.2748 24.4135 94.5554 23.9981C94.8359 23.5855 95.0945 23.1371 95.3366 22.6558C95.5814 22.1744 95.807 21.6545 96.0133 21.1016C96.2223 20.5487 96.4121 19.9656 96.5799 19.3466C96.5964 19.2861 96.6377 19.2366 96.6872 19.2091C96.7394 19.1788 96.8027 19.1706 96.8632 19.1843C96.9237 19.2036 96.9705 19.2421 97.0008 19.2944C97.0283 19.3439 97.0393 19.4072 97.0228 19.4677C96.8467 20.1031 96.6542 20.7055 96.4424 21.2694C96.2306 21.836 95.9967 22.3669 95.7464 22.8621C95.5044 23.3434 95.2458 23.7891 94.9707 24.2044C94.6957 24.617 94.4013 24.9994 94.0933 25.3487C94.0712 25.3707 94.0575 25.401 94.0602 25.434C94.0685 25.5963 94.118 25.7613 94.2088 25.9209C94.2968 26.0749 94.4206 26.2234 94.5801 26.361C94.7644 26.5205 94.9982 26.6663 95.2733 26.7818C95.5291 26.8891 95.8207 26.9744 96.1508 27.0294C96.2141 27.0404 96.2636 27.0762 96.2993 27.1229C96.3351 27.1697 96.3488 27.2302 96.3378 27.2935C96.3296 27.3567 96.2938 27.409 96.2471 27.4448C96.2003 27.4778 96.137 27.4943 96.0765 27.4833C95.7024 27.42 95.3668 27.321 95.0725 27.1945C94.7617 27.0597 94.4949 26.8946 94.2831 26.7103C94.041 26.5013 93.8594 26.2702 93.7467 26.0254C93.6311 25.7806 93.5816 25.5248 93.6064 25.2745C93.6064 25.2497 93.6119 25.2249 93.6229 25.2029ZM106.188 24.8261L105.721 27.4668C105.715 27.5108 105.734 27.5576 105.773 27.5823C105.979 27.7116 106.205 27.8849 106.438 28.0637L106.45 28.0692C106.835 28.3635 107.242 28.6716 107.489 28.7816C108.026 29.0182 108.524 29.1777 108.988 29.3235H108.991C109.39 29.4473 109.764 29.5683 110.105 29.7114C110.444 29.8544 110.76 30.025 111.051 30.2615C111.068 30.2753 111.087 30.2863 111.109 30.289C111.17 30.3 111.23 30.2588 111.241 30.1955L112.006 25.8604C112.017 25.8053 112.014 25.7476 112.003 25.6953C111.992 25.643 111.97 25.5908 111.937 25.5468C111.907 25.5028 111.868 25.4642 111.822 25.434C111.775 25.4065 111.725 25.3845 111.67 25.3735L106.67 24.4877C106.615 24.4795 106.56 24.4795 106.507 24.4905C106.455 24.5015 106.403 24.5263 106.359 24.5565C106.315 24.5868 106.276 24.628 106.246 24.6748C106.218 24.7188 106.196 24.7711 106.188 24.8261ZM108.108 29.5188C108.359 29.6068 108.612 29.6839 108.854 29.7609C109.517 29.9699 110.1 30.1542 110.617 30.5283C111.137 30.9052 111.58 31.4691 111.945 32.4291V32.4346C111.967 32.4896 112.011 32.5336 112.064 32.5556C112.119 32.5804 112.179 32.5831 112.24 32.5611H112.245C112.3 32.5364 112.344 32.4951 112.366 32.4401C112.391 32.3878 112.397 32.3246 112.375 32.264C112.259 31.967 112.141 31.7029 112.017 31.4718C111.893 31.2435 111.764 31.04 111.626 30.8612C111.607 30.8337 111.602 30.8007 111.607 30.7704L111.813 29.5903C111.824 29.5298 111.885 29.4858 111.945 29.4968C111.981 29.5023 112.011 29.5243 112.025 29.5518C112.421 30.146 112.768 30.7539 113.068 31.3811C113.37 32.0082 113.623 32.6574 113.83 33.3203C114.058 34.0548 114.229 34.8167 114.339 35.5979C114.451 36.3764 114.504 37.1823 114.498 38.0103C114.498 38.0708 114.446 38.1231 114.385 38.1231H114.377C114.264 38.1148 114.16 38.1066 114.058 38.1038C113.951 38.0983 113.846 38.0983 113.739 38.0983C113.117 38.1038 112.485 38.1891 111.852 38.3651C111.252 38.5357 110.653 38.7888 110.064 39.1298C110.012 39.1629 109.94 39.1436 109.91 39.0913C109.902 39.0831 109.899 39.0721 109.896 39.0638C109.833 38.8685 109.764 38.6787 109.687 38.4889C109.61 38.2936 109.525 38.1066 109.437 37.9278L109.434 37.9195C109.387 37.8233 109.338 37.7325 109.291 37.639C109.241 37.5509 109.189 37.4574 109.137 37.3666L109.134 37.3611C108.958 37.0585 108.763 36.767 108.551 36.4836C108.339 36.2003 108.105 35.9253 107.852 35.6557C107.437 35.2128 106.868 34.8085 106.312 34.4124L106.306 34.4069C105.976 34.1703 105.652 33.9392 105.371 33.7082C105.085 33.4744 104.851 33.2433 104.714 33.015C104.7 32.9875 104.689 32.9737 104.673 32.9462C104.653 32.9105 104.637 32.8719 104.623 32.8307C104.609 32.7922 104.596 32.7509 104.587 32.7124C104.563 32.5886 104.549 32.3796 104.546 32.1155C104.543 31.8542 104.552 31.5378 104.574 31.1995C104.585 31.084 104.587 30.9629 104.596 30.8447L104.623 30.5366C104.662 30.135 104.711 29.7279 104.777 29.3593C104.835 29.0292 104.906 28.7266 104.989 28.4763L104.992 28.4708C105.025 28.3745 105.063 28.2782 105.102 28.1875C105.14 28.1077 105.179 28.0307 105.22 27.9647C105.225 27.9069 105.272 27.8629 105.33 27.8601C105.344 27.8601 105.36 27.8629 105.374 27.8684C105.393 27.8739 105.407 27.8794 105.426 27.8821C105.448 27.8849 105.47 27.8931 105.487 27.9069C105.715 28.0829 105.954 28.259 106.18 28.4405C106.587 28.7514 107.016 29.076 107.305 29.2025C107.586 29.3263 107.852 29.428 108.108 29.5188ZM104.593 33.8622L104.131 36.4754C104.122 36.5277 104.125 36.5827 104.139 36.6322C104.15 36.6845 104.172 36.734 104.202 36.7752C104.23 36.8165 104.268 36.855 104.312 36.8825L104.315 36.8853C104.353 36.9128 104.4 36.932 104.45 36.943L108.565 37.672C108.592 37.6775 108.62 37.672 108.645 37.6582C108.697 37.6252 108.716 37.5564 108.686 37.5014C108.524 37.2318 108.345 36.9678 108.149 36.7147C107.957 36.4589 107.745 36.2113 107.522 35.9693C107.137 35.5622 106.587 35.1716 106.053 34.7892L106.042 34.781C105.586 34.4564 105.137 34.1373 104.788 33.8044C104.774 33.7879 104.75 33.7742 104.725 33.7687C104.662 33.7577 104.604 33.8017 104.593 33.8622ZM14.9577 86.3845C14.9274 85.1742 15.1062 83.9611 15.5133 82.8113C15.5821 82.6243 15.6536 82.4372 15.7334 82.2529C15.8104 82.0714 15.8957 81.8898 15.9837 81.7138C16.0937 81.4965 16.212 81.2874 16.3385 81.0866C16.4623 80.8858 16.5999 80.6878 16.7457 80.4925C16.7649 80.4677 16.7732 80.4347 16.7677 80.4017C16.7567 80.3384 16.6961 80.2999 16.6329 80.3109C16.0552 80.4237 15.5188 80.5475 15.0237 80.674C14.5286 80.8033 14.0802 80.9408 13.6758 81.0839C13.2 81.2517 12.7846 81.4305 12.4353 81.6175C12.0804 81.8046 11.7889 82.0026 11.5578 82.2089L11.5523 82.2172C10.5868 83.29 9.58277 84.7176 8.65578 86.3103C7.73429 87.8947 6.88431 89.6469 6.21864 91.3798C5.65474 92.857 5.22288 94.3094 4.99732 95.627C4.79101 96.84 4.75525 97.9403 4.9478 98.8316V98.8371C4.96431 98.8976 5.02757 98.9361 5.08809 98.9196C6.19663 98.6418 7.18964 98.0999 8.11664 97.4287C9.04363 96.763 9.89911 95.9763 10.7408 95.2006C11.6128 94.3974 12.4738 93.6052 13.3788 92.9643C14.281 92.3288 15.2355 91.842 16.3 91.6384C16.311 91.6384 16.322 91.6329 16.333 91.6274C16.3881 91.5971 16.4073 91.5256 16.3771 91.4706C16.2505 91.2451 16.1267 91.0085 16.0112 90.7692C15.8984 90.5299 15.7939 90.2878 15.7004 90.0457L15.6976 90.043C15.2438 88.8712 14.9879 87.6306 14.9577 86.3845Z" fill="white"/>
<path fill-rule="evenodd" clip-rule="evenodd" d="M104.706 33.8842L104.246 36.4919C104.235 36.5717 104.255 36.6487 104.296 36.7092C104.337 36.7697 104.403 36.8165 104.48 36.8302L108.584 37.5592C108.265 37.0283 107.883 36.5249 107.437 36.049C107.06 35.6447 106.513 35.2568 105.979 34.8772C105.517 34.5471 105.063 34.2226 104.706 33.8842ZM105.833 27.486C106.045 27.6181 106.276 27.7969 106.516 27.9784C106.898 28.2672 107.297 28.5726 107.536 28.6771C108.067 28.9109 108.565 29.0677 109.024 29.2135C109.825 29.4666 110.523 29.6866 111.129 30.1762L111.393 28.6798L111.395 28.6716L111.893 25.8384C111.907 25.7558 111.888 25.6761 111.847 25.6128C111.8 25.5495 111.734 25.5028 111.651 25.4863L106.65 24.6033C106.568 24.5868 106.488 24.606 106.425 24.65C106.362 24.6968 106.315 24.7628 106.301 24.8453L105.833 27.486ZM97.1329 19.4979C96.7808 20.7743 96.3544 21.9131 95.8483 22.9143C95.3614 23.8798 94.803 24.7188 94.1731 25.4285C94.1869 25.7146 94.3547 26.0144 94.6545 26.273C94.9983 26.57 95.51 26.8066 96.1702 26.9166C96.3572 26.9469 96.4837 27.1257 96.4535 27.3127C96.4205 27.5025 96.2444 27.6263 96.0574 27.5961C95.2652 27.464 94.6407 27.1697 94.2089 26.7956C93.6945 26.3555 93.4442 25.8053 93.4909 25.2662C93.4964 25.1919 93.524 25.1204 93.579 25.0626C94.2034 24.3777 94.7535 23.558 95.2349 22.6035C95.7218 21.6435 96.1316 20.546 96.47 19.3164C96.5222 19.1321 96.712 19.0248 96.8936 19.0771C97.0751 19.1266 97.1824 19.3164 97.1329 19.4979ZM104.697 49.6569C105.371 48.265 105.773 46.7824 106.153 45.3822C106.749 43.1734 107.294 41.1626 108.755 39.9248C108.969 39.7405 109.189 39.5727 109.409 39.4187C109.294 39.0446 109.156 38.6842 108.994 38.3321L104.373 37.5124C104.103 37.4657 103.88 37.3116 103.735 37.1026C103.589 36.8963 103.523 36.6322 103.567 36.3654L104.136 33.147C104.087 33.0425 104.048 32.9352 104.026 32.8279C104.001 32.7014 103.985 32.5006 103.979 32.253C103.242 33.158 102.387 33.8677 101.41 34.3793C100.805 34.6957 100.159 34.935 99.4655 35.1C99.0474 35.8262 98.6761 36.4864 98.3542 37.0861C98.28 37.2263 98.2084 37.3611 98.1397 37.4932C101.526 40.1449 102.522 43.6438 103.286 46.3312C103.713 47.8304 104.062 49.0572 104.697 49.6569ZM57.5637 65.8944C57.4455 66.6068 57.3437 67.3248 57.2612 68.0372C57.2227 68.3673 57.1869 68.7001 57.1566 69.0302V69.0385C57.1071 69.5611 57.0714 70.081 57.0411 70.6009V70.6036C57.0274 70.9007 56.9586 71.14 56.8458 71.3271C56.7303 71.5169 56.5652 71.6572 56.3644 71.7562C56.0151 71.9267 55.5585 71.979 55.0523 71.9515C54.4224 71.9157 53.7265 71.7534 53.0746 71.5416C52.1778 71.2445 51.5342 70.986 51.061 70.5844C50.5934 70.1883 50.2661 69.6271 49.9855 68.7166C49.7214 67.8557 49.6031 66.8626 49.6087 65.7734C49.6142 64.8821 49.6994 63.9249 49.8507 62.9209C50.0928 63.1684 50.3596 63.4105 50.6484 63.6498C52.3181 65.0224 54.5737 65.8421 56.8073 65.9026C57.0604 65.9081 57.3107 65.9054 57.5637 65.8944ZM94.0191 14.2716C94.0906 14.3403 94.1649 14.4063 94.2391 14.4614L94.2501 14.4696C94.3574 14.5494 94.4702 14.6181 94.5857 14.6732C93.4964 16.8875 92.6492 18.9313 92.0441 20.8073L92.0413 20.8155C91.4086 22.774 91.0428 24.5455 90.9383 26.1354C90.732 29.263 91.5599 31.6644 93.4167 33.3396C93.5597 33.4661 93.5707 33.6862 93.4442 33.8265C93.3149 33.9695 93.0976 33.9805 92.9573 33.854C92.3989 33.3506 91.9258 32.7894 91.5407 32.1705C91.3674 32.4786 91.1941 32.7977 91.0208 33.1305L91.018 33.1388L91.0125 33.1443C90.9355 33.2956 90.8585 33.4496 90.7815 33.6036C90.4376 34.2886 90.091 35.0313 89.7417 35.8317C89.7114 36.9733 89.9838 37.9085 90.4486 38.6182C90.8723 39.2619 91.4582 39.7213 92.1266 39.9743C92.7978 40.2274 93.5542 40.2769 94.3134 40.0981C95.2074 39.889 96.1069 39.3664 96.8771 38.4972C97.0256 38.1753 97.1962 37.8315 97.386 37.4574C97.3915 37.4437 97.3997 37.4272 97.408 37.4134C97.518 37.2043 97.628 36.9898 97.7491 36.7642C98.0021 36.2911 98.2772 35.7932 98.577 35.2651C98.0709 35.3338 97.5428 35.3696 96.9926 35.3641C96.8056 35.3641 96.6515 35.2101 96.6515 35.0203C96.6543 34.8305 96.8083 34.6764 96.9981 34.6764C97.7656 34.6819 98.489 34.6104 99.1629 34.4646L99.1712 34.4619C99.8616 34.3106 100.5 34.0795 101.094 33.7687C102.241 33.1663 103.212 32.2585 104.01 31.0482C104.021 30.8612 104.034 30.6714 104.054 30.4816C104.128 29.6866 104.257 28.8641 104.447 28.2947C104.527 28.0609 104.629 27.8244 104.744 27.6483C104.862 27.464 105.005 27.3265 105.173 27.277L105.492 25.4615C103.284 25.0131 103.022 22.3972 102.775 19.8858C102.577 17.9163 102.39 16.0045 101.3 15.0115C100.027 13.8507 98.577 14.0102 97.2237 14.1588C95.6145 14.3376 94.1594 14.4999 93.5872 11.7051C93.5515 11.5181 93.3699 11.3998 93.1829 11.4356C92.9958 11.4741 92.8775 11.6556 92.916 11.8427C93.1636 13.053 93.5432 13.8094 94.0191 14.2716ZM83.305 81.59C83.8662 81.458 84.4025 81.2764 84.9032 81.0426C87.6512 79.7525 90.2368 76.768 92.6657 72.0863C93.5019 70.4716 94.3189 68.6616 95.1139 66.6508L95.1221 66.6343C96.657 62.7503 98.1177 58.1263 99.5013 52.7624C99.548 52.5809 99.7378 52.4681 99.9194 52.5176C100.104 52.5644 100.214 52.7514 100.164 52.9385C98.7998 58.2281 97.3585 62.8081 95.8456 66.6728C97.496 68.1087 99.2152 69.0907 100.951 69.6794C103.869 70.6696 106.835 70.5459 109.591 69.5914C112.361 68.6341 114.919 66.8379 117.007 64.4888C118.85 62.4147 120.322 59.9143 121.246 57.1801C122.418 53.7114 122.643 50.3693 122.148 47.5003C121.623 44.447 120.277 41.9328 118.388 40.3814C117.081 39.3059 115.444 38.6595 113.742 38.6705C112.223 38.6842 110.647 39.2206 109.2 40.4474C107.902 41.5477 107.385 43.4595 106.815 45.561C106.056 48.3668 105.212 51.4944 102.324 53.7087C102.172 53.8242 101.958 53.794 101.842 53.6427C101.727 53.4914 101.754 53.2741 101.905 53.1613C102.995 52.3251 103.776 51.3403 104.37 50.284C103.498 49.5881 103.105 48.2127 102.623 46.521C101.894 43.9574 100.948 40.6262 97.8206 38.1203C97.6996 38.3679 97.584 38.6045 97.4795 38.83C97.463 38.8685 97.4382 38.9015 97.4107 38.929C96.5332 39.9276 95.5017 40.5272 94.4702 40.7693C93.5762 40.9783 92.685 40.9206 91.8873 40.618C91.0841 40.3154 90.3826 39.7653 89.8765 38.9978C89.3263 38.1588 89.01 37.0641 89.0595 35.741C89.0595 35.6969 89.0705 35.6557 89.0843 35.6172C89.4391 34.803 89.794 34.0438 90.1516 33.3286C87.6429 33.3011 85.1315 32.7234 82.5788 32.1375C80.1032 31.5681 77.5918 30.9932 75.0639 30.9217C70.4756 30.7897 66.091 31.5626 62.229 33.125C58.3945 34.6792 55.0771 37.0118 52.5904 40.0101C50.9428 41.9934 49.6609 44.2682 48.833 46.8044C48.0435 49.2223 47.6666 51.8767 47.7822 54.7347C47.8509 56.4264 47.9995 57.9751 48.4726 59.3752C48.7779 60.2829 49.2263 61.1329 49.881 61.9251C49.8892 61.9333 49.8947 61.9416 49.9002 61.9526C50.2386 62.3542 50.6292 62.7421 51.083 63.1189C52.6372 64.398 54.7415 65.1599 56.821 65.215C57.1896 65.226 57.5582 65.2122 57.9213 65.1764C57.9351 65.1737 57.9516 65.1737 57.9681 65.1737C59.47 65.0169 60.9004 64.464 62.0309 63.4325C64.5231 61.1686 65.2878 57.821 66.0827 54.3413C67.3398 48.8206 68.6739 42.9781 76.8546 40.1889C77.0334 40.1284 77.2259 40.2246 77.2892 40.4034C77.3497 40.585 77.2534 40.7803 77.0719 40.8408C69.2571 43.5035 67.9697 49.1562 66.7512 54.4926C65.9314 58.0823 65.1447 61.5317 62.493 63.9441C61.3047 65.0224 59.8276 65.6276 58.2734 65.8284C58.1414 66.5986 58.0314 67.3605 57.9433 68.117C57.9103 68.4058 57.8801 68.6946 57.8526 68.9862C60.1219 72.7602 65.5298 76.9358 71.2376 79.483C75.4902 81.3782 79.8914 82.3657 83.2583 81.5983C83.2748 81.5955 83.2885 81.5928 83.305 81.59ZM95.2817 138.75C96.635 138.984 98.0379 139.014 99.383 138.868C102.208 138.569 104.805 137.509 106.227 136.049C106.323 135.947 106.417 135.845 106.505 135.741C108.386 138.588 111.692 140.106 114.974 141.616C117.433 142.747 119.881 143.872 121.634 145.533C117.238 146.752 113.101 147.346 109.225 147.319C105.256 147.291 101.553 146.606 98.1259 145.272C97.7491 144.174 97.3062 143.047 96.7918 141.886C96.3462 140.874 95.8401 139.828 95.2817 138.75ZM16.2781 91.5284C14.1133 91.9382 12.4106 93.5034 10.6612 95.1153C8.98046 96.664 7.25026 98.2594 5.05793 98.8095C4.66458 96.9721 5.24773 94.2323 6.32602 91.4211C7.65462 87.9607 9.72316 84.4178 11.6377 82.2942C12.0805 81.8926 12.7737 81.5267 13.7117 81.1912C14.5177 80.9078 15.4969 80.652 16.655 80.4237C16.3607 80.8116 16.1021 81.2242 15.882 81.6615C15.6977 82.0246 15.5409 82.3932 15.4062 82.7728C14.5699 85.1329 14.6855 87.7544 15.5905 90.0843C15.7858 90.5794 16.0141 91.0635 16.2781 91.5284ZM62.383 95.957C62.2317 96.0093 62.0832 96.0616 61.9319 96.1138C62.8039 96.5099 63.8987 97.4507 65.2108 98.9278C66.6109 100.498 68.2393 102.669 70.1043 105.433C72.3654 108.786 74.5797 112.75 76.8353 116.791C80.8541 123.984 85.005 131.417 89.8215 136.12C90.2286 136.519 90.6742 136.871 91.1473 137.182C92.1348 137.826 93.2434 138.28 94.4097 138.569C95.0616 139.798 95.6475 140.997 96.1646 142.164C96.6955 143.371 97.1522 144.529 97.5263 145.643C97.5593 145.742 97.6363 145.819 97.7243 145.855C101.27 147.261 105.104 147.976 109.225 148.006C113.332 148.034 117.719 147.379 122.387 146.039C122.569 145.987 122.673 145.797 122.624 145.613C122.605 145.55 122.572 145.495 122.528 145.456C120.665 143.476 117.97 142.238 115.26 140.989C111.976 139.482 108.667 137.961 106.925 135.122C108.114 132.624 105.336 124.35 101.253 114.978C95.5787 101.945 87.3926 86.7064 83.9487 82.1292C84.3833 82.0054 84.7987 81.8513 85.192 81.6643C88.083 80.3109 90.776 77.2219 93.2791 72.4026C94.0603 70.8924 94.8278 69.2063 95.576 67.3495C97.2402 68.7606 98.9759 69.7371 100.728 70.3313C103.798 71.3738 106.92 71.2445 109.814 70.2433C112.699 69.242 115.359 67.3798 117.521 64.9481C119.422 62.8081 120.943 60.2224 121.895 57.4002C123.105 53.8187 123.339 50.3583 122.825 47.3848C122.272 44.1664 120.841 41.5065 118.825 39.8505C117.741 38.9593 116.446 38.3376 115.07 38.0956C115.09 36.3544 114.859 34.7067 114.374 33.1498C113.879 31.5489 113.12 30.0497 112.097 28.6523L112.573 25.9594C112.619 25.6898 112.551 25.4285 112.408 25.2194C112.377 25.1754 112.342 25.1342 112.309 25.0984C113.183 23.9871 113.767 22.521 113.932 21.0466C114.097 19.5337 113.827 17.9988 112.985 16.7967C112.328 15.856 111.453 15.7047 110.537 15.5451C109.844 15.4269 109.123 15.3031 108.526 14.7639C108.04 14.3211 107.993 13.3996 107.938 12.3983C107.844 10.5938 107.737 8.57206 105.275 7.85412C104.345 7.58455 103.501 7.71658 102.711 7.84312C101.93 7.9669 101.209 8.08243 100.599 7.71383C99.9221 7.30398 99.5783 6.31096 99.24 5.3262C99.0392 4.7403 98.8383 4.15715 98.5633 3.66752C97.8151 2.32792 96.8441 1.42568 95.8071 0.892038C94.6132 0.275876 93.3342 0.149343 92.1981 0.399659L92.1266 0.416163C91.0263 0.680232 90.0635 1.30465 89.4474 2.19313C88.8312 3.08161 88.5644 4.23417 88.856 5.54626L88.8725 5.61778C88.9605 6.04414 89.021 6.443 89.0458 6.8116C89.0733 7.17194 89.0705 7.49653 89.0348 7.79085C88.9412 8.60507 88.4929 9.19372 88.0115 9.82089C87.2578 10.8056 86.4326 11.8867 86.5096 14.0487C86.5564 15.4186 87.0653 16.739 87.929 17.9218C88.757 19.0578 89.915 20.0701 91.3041 20.8678C90.7045 22.7795 90.3551 24.5208 90.2533 26.0914C90.1158 28.1792 90.4156 29.9727 91.1473 31.4663C90.9355 31.8349 90.7182 32.2255 90.5037 32.6409C87.962 32.6684 85.3653 32.0715 82.7329 31.4663C80.2242 30.8914 77.6825 30.3083 75.0831 30.2313C70.3986 30.0992 65.9204 30.8887 61.9732 32.4868C58.0341 34.0823 54.6232 36.4837 52.0623 39.57C50.3596 41.622 49.0338 43.9739 48.1783 46.5898C47.3641 49.082 46.9762 51.8162 47.0945 54.7622C47.166 56.5117 47.3228 58.1208 47.8207 59.598C48.1398 60.5415 48.5964 61.4272 49.2593 62.2552C49.0475 63.4875 48.9292 64.6703 48.9237 65.7734C48.9182 66.9287 49.0448 67.9904 49.3308 68.9174C49.5179 69.5336 49.7324 70.015 49.9938 70.4056C47.0175 71.0823 44.2117 72.155 41.4473 73.2113C37.8686 74.5784 34.3559 75.918 30.6039 76.3719C29.3248 76.5287 28.0787 76.5507 26.8629 76.5699C24.2662 76.6167 21.8016 76.6635 19.3865 78.0498C18.6245 78.49 17.9451 79.0098 17.3619 79.6012C17.3372 79.6012 17.3069 79.6012 17.2794 79.6067C15.761 79.8736 14.4929 80.1844 13.4834 80.542C12.4491 80.9078 11.6762 81.3287 11.1618 81.7991L11.1343 81.8266C9.16751 84.0051 7.04395 87.6361 5.6851 91.1763C4.49678 94.2791 3.89163 97.3297 4.48028 99.3157C4.52979 99.489 4.70309 99.5908 4.87638 99.5577C7.4043 99.0489 9.29405 97.3104 11.1288 95.6215C12.8727 94.015 14.5644 92.4581 16.6522 92.1638L16.666 92.161C17.6177 93.5997 18.9216 94.8182 20.5225 95.6325C20.8938 95.8195 21.2845 95.9901 21.6861 96.1331C25.1767 97.3737 29.058 98.1961 33.1263 98.6197C37.3514 99.0599 41.7773 99.0681 46.1675 98.672C51.4571 98.1989 56.7 97.1371 61.4918 95.5334C66.0772 94.0013 70.2446 91.974 73.6417 89.4901C73.793 89.3801 74.0103 89.4131 74.1203 89.5644C74.2304 89.7184 74.1974 89.933 74.0433 90.0457C70.8607 92.3729 67.0207 94.3039 62.8039 95.8085L62.7929 95.814H62.7901L62.7764 95.8195L62.7516 95.8278L62.7103 95.8443L62.6966 95.847L62.6553 95.8635L62.6416 95.8663L62.6278 95.8718L62.6031 95.8828L62.5866 95.8855L62.5756 95.891L62.5591 95.8938L62.5481 95.8993L62.5316 95.9048L62.5205 95.9103L62.5068 95.913L62.493 95.9213L62.4793 95.924L62.4655 95.9295L62.4518 95.9323L62.4105 95.9488L62.3968 95.9515L62.383 95.957ZM111.717 30.7897L111.926 29.6096C112.713 30.7897 113.31 32.0357 113.72 33.3533C114.174 34.8167 114.394 36.3681 114.385 38.0103C114.171 37.991 113.956 37.9828 113.739 37.9855C112.498 37.9938 111.228 38.3184 110.006 39.0308C109.877 38.632 109.723 38.2496 109.539 37.8755L109.536 37.87C109.442 37.6775 109.343 37.4904 109.236 37.3061C108.878 36.6955 108.447 36.1178 107.938 35.5759C107.511 35.1248 106.939 34.7149 106.378 34.3161C105.715 33.843 105.071 33.3863 104.81 32.9545C104.802 32.9352 104.788 32.9132 104.777 32.894C104.739 32.8252 104.714 32.7564 104.7 32.6877C104.653 32.4566 104.648 31.8817 104.686 31.205C104.689 31.1885 104.689 31.1748 104.689 31.1582C104.7 30.9602 104.717 30.7539 104.736 30.5448C104.807 29.7966 104.928 29.0292 105.099 28.5148C105.16 28.3305 105.239 28.149 105.322 28.0197C105.333 28.0032 105.336 27.9867 105.333 27.9757C105.355 27.9839 105.374 27.9894 105.396 27.9922L105.41 27.9949C105.534 28.0884 105.811 28.3002 106.103 28.5258C106.518 28.8421 106.958 29.175 107.258 29.307C107.822 29.5573 108.339 29.7196 108.821 29.8709C110.122 30.2808 111.126 30.5971 111.838 32.4703C111.904 32.6491 112.102 32.7372 112.281 32.6684C112.457 32.6024 112.548 32.4016 112.479 32.2228C112.251 31.6204 111.995 31.1582 111.717 30.7897Z" fill="black"/>
</g>
<defs>
<filter id="filter0_d" x="0.252441" y="0.278809" width="126.829" height="155.728" filterUnits="userSpaceOnUse" color-interpolation-filters="sRGB">
<feFlood flood-opacity="0" result="BackgroundImageFix"/>
<feColorMatrix in="SourceAlpha" type="matrix" values="0 0 0 0 0 0 0 0 0 0 0 0 0 0 0 0 0 0 127 0"/>
<feOffset dy="4"/>
<feGaussianBlur stdDeviation="2"/>
<feColorMatrix type="matrix" values="0 0 0 0 0 0 0 0 0 0 0 0 0 0 0 0 0 0 0.25 0"/>
<feBlend mode="normal" in2="BackgroundImageFix" result="effect1_dropShadow"/>
<feBlend mode="normal" in="SourceGraphic" in2="effect1_dropShadow" result="shape"/>
</filter>
</defs>
</svg>
