<svg width="147" height="139" viewBox="0 0 147 139" fill="none" xmlns="http://www.w3.org/2000/svg">
<g filter="url(#filter0_d)">
<path fill-rule="evenodd" clip-rule="evenodd" d="M46.0106 122.559C46.821 122.624 43.2607 123.616 43.4722 121.927C44.1962 122.258 45.382 122.126 46.0106 122.559Z" fill="#81D000"/>
<path fill-rule="evenodd" clip-rule="evenodd" d="M39.3427 122.243C39.2057 120.413 41.1304 122.314 43.1504 121.927C40.7162 124.12 36.6315 121.891 32.9967 121.611C29.1563 121.313 25.2831 121.754 22.5242 119.71C26.9366 120.982 34.254 121.236 39.3427 122.243Z" fill="#81D000"/>
<path fill-rule="evenodd" clip-rule="evenodd" d="M32.9967 120.345C33.1337 120.827 30.065 119.344 28.8702 119.076C30.0203 118.468 31.8586 119.889 32.9967 120.345Z" fill="#81D000"/>
<path fill-rule="evenodd" clip-rule="evenodd" d="M49.6633 10.537C48.8708 12.2173 48.3435 14.4221 48.3018 15.1967L48.2958 15.2801C48.2869 15.5215 48.272 15.8015 48.0425 15.7926H48.0396C47.974 15.7896 47.9204 15.7658 47.8846 15.7241C47.8459 15.6794 47.8251 15.6138 47.8251 15.5393V15.5364C47.828 15.4797 47.7893 15.4321 47.7357 15.4202C47.6761 15.4082 47.6195 15.3904 47.5599 15.3635C47.5033 15.3367 47.4467 15.304 47.393 15.2652C47.116 15.0477 46.8329 14.8332 46.5469 14.6187C46.2579 14.4042 45.9689 14.1956 45.6799 13.9901C45.6293 13.9543 45.5577 13.9662 45.522 14.0139C45.5071 14.0377 45.5011 14.0616 45.5041 14.0854C45.5488 15.003 45.6531 15.9028 45.8229 16.7877C45.9957 17.6726 46.2341 18.5455 46.5409 19.3946C46.5618 19.4542 46.6273 19.484 46.684 19.4602C46.7137 19.4513 46.7376 19.4304 46.7465 19.4036C47.104 18.6587 47.5778 17.9943 48.1707 17.4789C48.7099 17.0082 49.3535 16.6626 50.0953 16.4927C50.14 16.4808 50.1698 16.448 50.1817 16.4093C50.5214 15.301 50.6018 14.1986 50.6882 13.0754C50.7359 12.4676 50.7806 11.8479 50.87 11.2252C50.9325 10.7842 51.0964 10.2182 51.2513 9.68188V9.6789C51.3437 9.36011 51.4658 9.07111 51.5552 8.86255C51.6178 8.71954 51.6625 8.61228 51.6774 8.54078C51.6923 8.48119 51.6535 8.4216 51.594 8.40671C51.5791 8.40373 51.5642 8.40373 51.5493 8.40671C50.8342 8.5378 50.1877 9.42565 49.6633 10.537ZM47.9174 4.85827C47.9353 4.68249 47.9532 4.50671 47.974 4.33986L48.0187 4.03596L48.1081 3.59502C48.123 3.53245 48.0813 3.47584 48.0217 3.46094C47.9919 3.45499 47.9651 3.46094 47.9412 3.47584C47.1547 3.94956 46.3175 4.81358 45.7008 5.75208C45.1228 6.631 44.7325 7.58142 44.7444 8.34712C44.7444 8.38287 44.7623 8.41267 44.7861 8.43352L44.8546 8.49013C45.1704 8.69571 45.5667 8.62122 45.951 8.41862C46.4635 8.15048 46.964 7.64995 47.1964 7.3103C47.7476 6.49991 47.831 5.68952 47.9174 4.85827ZM51.1143 2.77569C51.0934 2.85017 51.1143 2.9336 51.2007 2.99616L52.9377 4.2624C52.9645 4.28325 52.9913 4.29517 53.0211 4.30113C53.0509 4.30709 53.0836 4.30709 53.1164 4.30113L53.1283 4.29815C53.1879 4.29219 53.2445 4.33688 53.2505 4.39945C53.2565 4.46797 53.2982 4.52756 53.3577 4.57225C53.3846 4.59311 53.4173 4.608 53.4501 4.61694C53.4799 4.62588 53.5127 4.63184 53.5455 4.62886C53.5991 4.6229 53.6527 4.59311 53.6944 4.53948C53.7332 4.48287 53.7451 4.42328 53.7332 4.36965C53.7272 4.33986 53.7123 4.31007 53.6974 4.28623L53.6944 4.28027C53.6736 4.25346 53.6497 4.22962 53.6229 4.20877C53.5663 4.16408 53.4948 4.14322 53.4263 4.15812L53.4114 4.1611C53.3518 4.16706 53.2982 4.12237 53.2922 4.0598C53.2892 4.03001 53.2773 4.00021 53.2624 3.9734C53.2475 3.9436 53.2267 3.92275 53.1998 3.90189L51.4629 2.63268C51.3765 2.57309 51.2901 2.57905 51.2245 2.62076C51.2007 2.63566 51.1768 2.65949 51.159 2.68333L51.156 2.68631C51.1351 2.71312 51.1232 2.73994 51.1143 2.76675V2.77569ZM55.1186 5.48096L51.874 9.93215C51.8442 9.97088 51.7966 9.98876 51.7489 9.97684C51.6893 9.95896 51.6535 9.89639 51.6714 9.83681L51.6833 9.7951C51.8264 9.30648 52.0051 8.69273 51.9843 8.29647C51.9753 8.07898 51.8949 7.93299 51.6982 7.9449C50.8342 7.98662 50.1073 8.77317 49.5233 9.81893C48.5937 11.4904 48.0425 13.8113 47.8936 14.863C47.8906 14.8809 47.8846 14.8958 47.8727 14.9137C47.837 14.9643 47.7684 14.9732 47.7178 14.9375L45.3969 13.2512L43.1474 11.6125C43.0342 11.5202 42.9627 11.4099 42.9389 11.2967C42.9091 11.1745 42.9299 11.0524 43.0074 10.9481L44.4882 8.91916C44.5179 8.86553 44.5895 8.85063 44.6401 8.88341C44.944 9.07111 45.2807 9.09494 45.6084 9.02344C46.0523 8.92214 46.4873 8.64804 46.818 8.37393C47.4079 7.88532 47.7625 7.34605 47.983 6.76507C48.2064 6.18111 48.2958 5.54949 48.3643 4.88806C48.3941 4.59311 48.4239 4.30709 48.4746 4.02107C48.5282 3.73207 48.6027 3.45201 48.7218 3.16599L48.7338 3.14513L49.8034 1.63161C49.8778 1.52733 49.994 1.46476 50.1132 1.44391C50.2354 1.42603 50.3605 1.45285 50.4678 1.52733C51.9843 2.57309 53.471 3.74101 54.9785 4.81954C55.0917 4.90594 55.1633 5.01916 55.1871 5.13237C55.2169 5.25453 55.193 5.37668 55.1186 5.48096ZM112.978 13.3376C113.014 13.3882 113.082 13.3972 113.133 13.3644C113.154 13.3495 113.169 13.3286 113.175 13.3078L113.333 12.8281C113.344 12.7834 113.333 12.7387 113.3 12.7089L112.981 12.4229C112.936 12.3812 112.865 12.3872 112.823 12.4318L112.808 12.4527L112.641 12.7447C112.618 12.7864 112.623 12.837 112.653 12.8728L112.978 13.3376ZM109.23 16.9665C109.126 16.6894 109.072 16.4182 109.069 16.1471C109.069 15.6466 109.605 14.4638 110.288 13.5253C110.547 13.1677 110.824 12.849 111.101 12.6195C111.369 12.402 111.628 12.265 111.861 12.265C111.977 12.265 112.087 12.2978 112.191 12.3723C112.239 12.408 112.311 12.3991 112.346 12.3484L112.606 11.979C112.615 11.9641 112.623 11.9492 112.626 11.9343C112.644 11.9313 112.665 11.9194 112.68 11.9075C112.734 11.8687 112.781 11.8598 112.829 11.8628C112.889 11.8717 112.954 11.9015 113.023 11.9343C113.079 11.9581 113.145 11.9343 113.172 11.8807C113.19 11.8419 113.184 11.7943 113.16 11.7645L112.561 10.8915C112.531 10.8468 112.472 10.8289 112.421 10.8528L112.206 10.9481L111.983 11.0554C111.926 11.0822 111.905 11.1507 111.932 11.2043C111.944 11.2312 111.965 11.249 111.989 11.2609C112.034 11.2788 112.081 11.2967 112.129 11.3146C112.355 11.395 112.623 11.4963 112.537 11.7168L112.516 11.7615C112.504 11.7734 112.501 11.7883 112.498 11.8062C112.483 11.8062 112.466 11.8121 112.454 11.8211C112.424 11.8419 112.388 11.8538 112.352 11.8568C112.32 11.8628 112.284 11.8568 112.248 11.8449C111.193 11.4397 110.165 10.9332 109.248 10.2986C108.33 9.66698 107.52 8.91022 106.903 7.99555C106.882 7.96874 106.87 7.93597 106.867 7.90915C106.861 7.86744 106.867 7.81977 106.885 7.78402C106.9 7.74231 106.927 7.70953 106.963 7.68272C106.989 7.66782 107.019 7.6559 107.052 7.64995C107.085 7.64399 107.115 7.62611 107.13 7.5993C107.135 7.61717 107.141 7.63207 107.153 7.64399L107.946 8.59441C107.967 8.61824 107.994 8.63314 108.02 8.63314C108.256 8.65697 108.473 8.65995 108.679 8.64506C108.884 8.62718 109.081 8.59143 109.263 8.5378C109.322 8.51992 109.358 8.45736 109.34 8.39777C109.331 8.36798 109.31 8.34116 109.281 8.32924C108.953 8.14154 108.548 7.93299 108.16 7.76614C107.842 7.62909 107.529 7.51587 107.261 7.45927C107.213 7.45033 107.168 7.47118 107.141 7.50991C107.132 7.46522 107.088 7.42947 107.043 7.42649C106.754 7.40564 106.42 7.74529 106.072 8.28455C105.738 8.79403 105.381 9.49418 105.029 10.2331C104.543 11.2461 104.117 12.2739 103.819 13.1499C103.519 14.0198 103.337 14.7498 103.331 15.1669C103.328 15.3665 103.513 15.6674 103.831 16.0071C104.126 16.3229 104.543 16.6834 105.038 17.038C105.607 17.4402 106.274 17.8186 106.984 18.0956C107.6 18.331 108.247 18.4949 108.887 18.5276H108.893C109.182 18.5396 109.492 18.188 109.686 17.9705L109.707 17.9496C109.742 17.9079 109.742 17.8483 109.71 17.8066C109.498 17.5236 109.337 17.2435 109.23 16.9665ZM110.344 17.8722C109.874 17.3567 109.519 16.7639 109.516 16.1471C109.516 15.9743 109.573 15.7568 109.665 15.5155C109.879 14.9613 110.303 14.2671 110.72 13.713C111.152 13.138 111.59 12.7059 111.819 12.7059C111.849 12.7059 111.876 12.7089 111.899 12.7208C112.019 12.7655 112.215 13.0158 112.424 13.3257C112.772 13.847 113.181 14.5591 113.258 14.7081C113.288 14.7617 113.336 14.8004 113.392 14.8153C113.449 14.8332 113.508 14.8302 113.562 14.8004C113.738 14.7081 113.675 14.5204 113.577 14.3386C113.547 14.285 113.511 14.2254 113.476 14.1658L113.413 14.0556C113.392 14.0258 113.386 13.9871 113.404 13.9513C113.458 13.8143 113.508 13.6891 113.55 13.5819C113.595 13.4746 113.631 13.3703 113.666 13.272C113.759 12.9949 113.809 12.8311 113.8 12.7119C113.791 12.6017 113.726 12.5063 113.586 12.3514C113.559 12.3246 113.544 12.2829 113.553 12.2441L113.633 11.9045C113.642 11.8717 113.666 11.8419 113.699 11.827C113.756 11.8032 113.821 11.83 113.848 11.8866C114.054 12.3723 114.232 13.1588 114.378 14.002C114.584 15.1937 114.715 16.5046 114.763 17.2227C114.763 17.2703 114.733 17.315 114.685 17.3329C114.155 17.5176 113.648 17.7619 113.187 18.0658C112.743 18.3608 112.34 18.7094 111.992 19.1116C111.956 19.1563 111.891 19.1652 111.84 19.1325C111.381 18.8166 110.806 18.3787 110.344 17.8722ZM98.6949 43.5812C99.0554 42.741 99.4695 41.7817 99.3176 40.8491C99.1954 40.1341 98.7158 39.7438 98.1437 39.276C97.4406 38.704 96.5855 38.0098 96.1207 36.4099C95.9539 35.8348 95.8615 35.1674 95.9479 34.5597C96.0194 34.077 96.2071 33.6301 96.5587 33.2994C96.8656 33.0134 97.2827 32.9776 97.7445 32.9419C98.4208 32.8882 99.1865 32.8257 99.9135 32.0183C100.283 31.6041 100.474 31.1691 100.491 30.7997C100.5 30.5792 100.447 30.3796 100.34 30.2157C100.229 30.0519 100.062 29.9267 99.836 29.8582C99.4815 29.748 98.9779 29.7837 98.3404 30.031C98.2063 30.0846 98.0186 30.1889 97.8041 30.3051C97.5598 30.4422 97.2737 30.6001 96.9907 30.7222C96.4633 30.9457 95.9449 31.038 95.7453 30.5703C95.6649 30.3856 95.6798 30.1561 95.7423 29.9208C95.8109 29.6735 95.933 29.4202 96.0641 29.1908L96.0909 29.1432L96.228 28.9018C96.7881 27.9097 97.2499 27.0904 96.2757 26.2889C95.7841 25.8837 94.9945 25.5917 94.2288 25.5202C93.5346 25.4547 92.8523 25.5679 92.4203 25.9373L91.4282 26.8103L89.0596 28.3387C89.0328 28.3566 89.0149 28.3834 89.009 28.4132C88.9702 28.6098 89.1073 28.7678 89.292 28.9793C89.5482 29.2772 89.9147 29.7003 89.9057 30.472C89.8908 31.3092 89.432 32.1255 89.0447 32.8108C88.6723 33.4722 88.3624 34.0204 88.5471 34.4226C88.7736 34.9172 89.4052 35.0483 90.1381 35.1972C91.0677 35.3849 92.173 35.6114 92.7034 36.675C93.1116 37.4943 92.9537 38.5371 92.5574 39.5769C92.1552 40.6286 91.5087 41.6804 90.9545 42.4997C90.9336 42.5325 90.9306 42.5742 90.9455 42.6099C91.3686 43.7421 92.3965 44.6329 93.6449 45.1394C94.9022 45.6489 96.3859 45.774 97.7057 45.3629C97.7802 45.339 97.8577 45.3122 97.9381 45.2854L97.9411 45.2824C98.0186 45.2526 98.0931 45.2258 98.1646 45.196C98.2093 45.1782 98.2361 45.1335 98.2331 45.0858C98.2122 44.6955 98.4417 44.1681 98.6949 43.5812ZM108.098 42.1154C106.909 42.9824 105.5 43.7302 103.858 44.3558C103.626 44.4452 103.381 44.5346 103.125 44.621L103.122 44.624C102.869 44.7104 102.613 44.7968 102.363 44.8772L102.351 44.8802C101.156 45.1841 100.328 45.3539 99.7705 45.4135C99.1895 45.4761 98.8856 45.4135 98.7575 45.2616C98.7485 45.2526 98.7426 45.2437 98.7366 45.2318L98.6979 45.1513L98.6919 45.1305C98.6294 44.8564 98.823 44.4154 99.0643 43.8583C99.4368 43.0002 99.9373 41.8561 99.7556 40.7776C99.6096 39.8957 99.0733 39.4578 98.4685 38.9662C97.7653 38.3941 96.9728 37.7506 96.5498 36.2877C96.4157 35.8199 96.3233 35.239 96.3799 34.7116C96.4276 34.2885 96.5706 33.9012 96.8626 33.6271C97.0563 33.4454 97.3691 33.4186 97.7653 33.3917C98.4446 33.3411 99.3891 33.2726 100.247 32.3162C100.488 32.048 100.67 31.7531 100.786 31.4522C100.915 31.1244 100.962 30.7937 100.918 30.4928C100.876 30.2008 100.748 29.9357 100.524 29.7361C100.405 29.6288 100.259 29.5394 100.083 29.4709C99.0912 29.0865 98.0156 29.6675 97.2499 30.0876C96.8 30.3289 96.4485 30.5196 96.225 30.4511C96.1922 30.4392 96.1624 30.4153 96.1535 30.3826C96.0552 30.1174 96.2846 29.7152 96.5647 29.2266C96.9669 28.5175 97.4853 27.6088 97.2022 26.8222C97.0801 26.4826 96.8537 26.1906 96.5647 25.9493C96.231 25.6692 95.8139 25.4547 95.3878 25.3117C94.7889 25.1061 94.1812 25.0108 93.6061 25.0614C93.0907 25.1031 92.5961 25.267 92.1552 25.5798L91.6517 26.0446C91.6338 26.0625 91.607 26.0774 91.5802 26.0774C91.5176 26.0833 91.464 26.0357 91.458 25.9761C91.4401 25.7496 91.4371 25.5292 91.4401 25.3147C91.4431 25.0942 91.458 24.8827 91.4789 24.6801C91.6636 23.1278 92.4442 21.936 93.5257 21.1555C94.7115 20.3004 96.2608 19.9339 97.7922 20.1157C99.8926 20.3629 100.623 21.2508 101.29 22.0582C101.758 22.6213 102.19 23.1457 103.066 23.3602C103.468 23.4555 103.882 23.5151 104.287 23.5747C105.747 23.7862 107.103 23.9829 107.66 25.8271C108.035 27.0665 107.713 28.1391 107.407 29.1491C107.124 30.0906 106.855 30.9785 107.216 31.8752C107.38 32.2804 107.645 32.635 107.97 32.9627C108.294 33.2934 108.685 33.6003 109.081 33.9191C109.787 34.4822 110.526 35.0721 110.961 35.8795C111.402 36.6929 111.527 37.7148 110.994 39.1241C110.988 39.133 110.985 39.1419 110.979 39.1509C110.246 40.2592 109.284 41.2454 108.098 42.1154ZM117.563 116.397C116.115 118.894 113.976 121.191 111.956 122.955C111.908 122.993 111.902 123.065 111.944 123.11C111.977 123.148 112.034 123.16 112.078 123.136C113.866 122.234 116.068 121.176 118.371 120.172C120.209 119.368 122.116 118.596 123.921 117.961C125.861 117.282 127.693 116.758 129.231 116.522C130.568 116.317 131.677 116.329 132.424 116.641C134.474 117.494 136.015 119.114 137.454 120.625C138.741 121.975 139.947 123.241 141.377 123.834C141.434 123.857 141.5 123.831 141.523 123.777C141.803 123.148 141.735 121.951 141.467 120.533C141.142 118.816 140.528 116.767 139.894 115.027C139.259 113.299 138.318 111.121 137.355 109.449C136.601 108.147 135.83 107.146 135.168 106.887C135.13 106.872 135.082 106.881 135.052 106.911C133.142 108.499 130.616 109.402 127.884 109.863C125.14 110.328 122.187 110.352 119.425 110.191C119.363 110.185 119.312 110.233 119.309 110.295V110.307C119.413 112.351 118.701 114.437 117.563 116.397ZM22.1786 124.248C23.1826 123.056 24.425 121.829 25.9207 120.634C27.2078 119.606 28.6766 118.608 30.3451 117.675C31.8735 116.82 33.5658 116.022 35.4279 115.316C35.4875 115.295 35.5173 115.229 35.4964 115.173C35.4875 115.155 35.4755 115.137 35.4636 115.128C33.7952 113.734 31.9956 113.03 30.1276 112.905C28.1344 112.774 26.0667 113.302 24.0079 114.359C23.996 114.365 23.9871 114.374 23.9781 114.38C23.2661 115.059 22.2382 115.998 21.1745 116.799C20.1228 117.592 19.0413 118.247 18.213 118.367C16.2079 118.656 13.9317 118.656 11.7359 118.656C9.48943 118.656 7.3264 118.656 5.6073 118.965C5.55368 118.974 5.51494 119.022 5.51494 119.073C5.50899 119.639 6.01846 120.387 6.77522 121.176C7.70776 122.15 9.03061 123.199 10.2343 124.036C11.4111 124.856 12.6923 125.642 13.9347 126.301C15.1324 126.938 16.2973 127.463 17.2984 127.793C17.79 127.957 18.2369 128.073 18.6242 128.133H18.6361C19.0085 128.189 19.3243 128.195 19.5746 128.139C19.6074 128.13 19.6342 128.106 19.6491 128.076C20.2033 126.911 21.0405 125.6 22.1786 124.248ZM53.1849 124.144C51.3943 124.748 49.3177 124.903 46.6691 124.158C42.7452 123.065 40.7937 120.61 38.881 118.206C37.2244 116.126 35.6007 114.085 32.7464 113.021C31.3312 112.494 29.9041 112.339 28.48 112.485C27.0558 112.631 25.6347 113.078 24.2403 113.745C24.2254 113.751 24.2075 113.757 24.1867 113.757C24.1271 113.757 24.0765 113.707 24.0765 113.644C24.1331 107.542 29.8356 103.809 35.3415 100.21C37.5462 98.7652 39.7211 97.344 41.479 95.8037C45.0691 92.6545 47.6642 89.6423 50.0387 86.8924C55.92 80.0726 60.4308 74.8438 75.2264 72.9906C75.2889 72.9847 75.3426 73.0264 75.3515 73.0889C75.3753 73.2707 75.4111 73.4494 75.4558 73.6193C75.5034 73.7891 75.5601 73.953 75.6316 74.1049C76.1083 75.1626 76.9633 76.1011 78.1968 76.9145C79.4392 77.7368 81.063 78.4339 83.0681 79.009C85.0404 79.575 87.3882 80.0249 90.1143 80.3556C92.8434 80.6893 95.9449 80.9038 99.4189 81.0051C100.229 81.0171 101.046 80.88 101.785 80.6089C102.5 80.3407 103.146 79.9475 103.644 79.438C103.685 79.3963 103.757 79.3933 103.802 79.435C104.943 80.5016 105.816 81.6934 106.414 83.0103C107.016 84.3301 107.347 85.7721 107.407 87.3423C107.466 88.9571 107.112 90.4527 106.769 91.8888C106.224 94.174 105.714 96.3102 107.025 98.506C108.232 100.532 110.106 101.479 112.051 102.463C114.074 103.485 116.178 104.548 117.727 106.899C118.07 107.414 118.311 107.903 118.484 108.403C118.657 108.901 118.764 109.413 118.832 109.974L118.835 109.98C118.964 111.255 118.746 112.575 118.26 113.906C117.736 115.345 116.896 116.79 115.838 118.194C114.822 119.546 113.598 120.857 112.263 122.079C110.851 123.369 109.313 124.561 107.749 125.589C106.164 126.634 104.558 127.516 103.036 128.175C101.546 128.818 100.137 129.25 98.9154 129.408C94.8158 129.947 91.4342 129.348 88.431 128.192L88.425 128.189C85.4277 127.036 82.8119 125.329 80.2317 123.646L80.2138 123.634C76.4539 121.182 72.7684 118.778 68.0878 118.158C63.5204 117.55 60.7317 119.502 57.9728 121.435L57.9639 121.441C56.4623 122.493 54.9696 123.542 53.1849 124.144Z" fill="white"/>
<path fill-rule="evenodd" clip-rule="evenodd" d="M119.419 110.301C119.559 112.995 118.302 115.849 116.288 118.527C115.093 120.115 113.628 121.644 112.028 123.038C115.245 121.411 119.813 119.284 123.886 117.854C127.538 116.573 130.822 115.852 132.466 116.537C134.54 117.401 136.074 119.013 137.534 120.544C138.803 121.876 140.01 123.145 141.419 123.732C141.467 123.628 141.503 123.5 141.529 123.348C141.812 121.778 140.999 118.378 139.786 115.065C138.574 111.746 136.968 108.538 135.669 107.358C135.472 107.182 135.291 107.057 135.13 106.991C133.53 108.323 131.408 109.262 128.763 109.813C126.162 110.352 123.045 110.516 119.419 110.301ZM24.0586 114.461C22.9086 115.551 21.7406 116.558 20.6919 117.288C19.7534 117.943 18.9013 118.381 18.228 118.477C16.1275 118.781 13.8423 118.778 11.6465 118.775C9.45072 118.772 7.34728 118.766 5.6252 119.076C5.6252 119.192 5.65202 119.326 5.70565 119.472C6.1317 120.649 8.01466 122.356 10.2969 123.947C12.6059 125.553 15.3082 127.016 17.3341 127.686C18.2816 128.002 19.0622 128.139 19.5478 128.029C20.5995 125.818 22.6523 123.101 25.8492 120.547C28.3221 118.575 31.4802 116.692 35.3892 115.211C34.5788 114.535 33.6611 113.96 32.5528 113.546C31.2568 113.06 29.8982 112.896 28.48 113.048C27.0678 113.203 25.593 113.674 24.0586 114.461ZM111.795 2.58202C111.646 2.05765 111.351 1.72694 111.021 1.64054C110.645 1.54222 110.264 1.72396 110.005 2.24237C109.653 2.95444 109.507 4.45902 110.07 6.94382C110.109 7.12557 110.291 7.23878 110.469 7.20005C110.562 7.17621 110.636 7.12259 110.684 7.0481C111.908 5.08469 112.051 3.48477 111.795 2.58202ZM112.74 12.7983C112.814 12.8966 112.889 13.0009 112.969 13.1201C113.002 13.1677 113.035 13.2184 113.07 13.272C113.094 13.2094 113.115 13.1469 113.133 13.0933C113.175 12.9681 113.207 12.8698 113.225 12.7923C113.169 12.7208 113.103 12.6553 113.035 12.5987C112.993 12.5659 112.951 12.5331 112.907 12.5063L112.877 12.557C112.832 12.6255 112.787 12.7089 112.74 12.7983ZM112.034 11.1567C112.171 11.2133 112.308 11.2669 112.451 11.3235C112.624 11.3891 112.707 11.5857 112.641 11.7555C112.632 11.7823 112.624 11.8032 112.609 11.8211C112.698 11.7525 112.823 11.7287 112.936 11.7734C112.984 11.7913 113.026 11.8121 113.07 11.83L113.076 11.8181C113.005 11.6781 112.915 11.535 112.814 11.392C112.713 11.246 112.594 11.1001 112.469 10.9541C112.326 11.0166 112.18 11.0822 112.034 11.1567ZM107.237 7.56949C107.287 7.59333 107.335 7.63206 107.368 7.68271C107.565 7.97469 107.785 8.25475 108.032 8.52289C108.485 8.56758 108.878 8.52885 109.233 8.43053C108.813 8.19218 108.408 7.98958 108.047 7.84062C107.731 7.70952 107.454 7.61716 107.237 7.56949ZM106.811 8.05811C106.706 7.90616 106.748 7.69761 106.9 7.59333C106.942 7.56353 106.99 7.54566 107.034 7.5397C106.998 7.53672 106.966 7.53672 106.936 7.53672C106.546 7.6112 105.822 8.83275 105.127 10.2807C104.216 12.1875 103.417 14.4429 103.444 15.1371V15.1699C103.441 15.5006 104.108 16.2395 105.104 16.9456C106.146 17.6875 107.532 18.3429 108.896 18.4144L108.977 18.4204C109.057 18.3906 109.153 18.325 109.266 18.2297C109.376 18.1373 109.495 18.0182 109.62 17.8752C109.182 17.2912 108.959 16.7162 108.959 16.1471C108.956 15.6585 109.373 14.714 109.912 13.8828C110.207 13.424 110.544 12.986 110.869 12.6761C111.25 12.3097 111.637 12.0981 111.983 12.1637C112.081 12.1816 112.174 12.2203 112.257 12.2829C112.272 12.2531 112.29 12.2263 112.305 12.1994C112.376 12.0892 112.445 11.9939 112.516 11.9164C112.427 11.973 112.314 11.9879 112.209 11.9492C111.837 11.8062 111.479 11.6542 111.137 11.4963C111.131 11.4933 111.119 11.4874 111.113 11.4844C110.323 11.1149 109.62 10.7098 108.998 10.2628C108.092 9.61036 107.362 8.87744 106.811 8.05811ZM48.0009 3.57117C47.2888 4.0002 46.6065 4.6795 46.0583 5.4303C45.3284 6.43137 44.8427 7.54566 44.8576 8.34711L44.8666 8.35605H44.8695V8.35903L44.8785 8.36499V8.36796H44.8844V8.37094L44.8934 8.37988H44.8963V8.38286H44.9023L44.9053 8.38584V8.38882H44.9083V8.3918H44.9112L44.9142 8.39478H44.9172L44.9232 8.40074H44.9261V8.40372H44.9291L44.9321 8.4067C45.1138 8.52587 45.3492 8.52289 45.5965 8.44543C45.8915 8.35307 46.1924 8.16239 46.4605 7.94191C46.7287 7.71846 46.9551 7.47415 47.0921 7.26262L47.1041 7.24772C47.6463 6.41349 47.7297 5.618 47.8072 4.83741L47.8102 4.81357V4.79569L47.8132 4.77484V4.77186L47.8191 4.73909V4.71823L47.8221 4.70929V4.69737L47.8251 4.6795V4.64673L47.831 4.61693V4.59906L47.834 4.58416V4.5782L47.837 4.56032V4.55436L47.84 4.53947V4.51861L47.8429 4.50074L47.8459 4.47988V4.45902L47.8489 4.44115L47.8519 4.42923V4.42327L47.8549 4.40242V4.39646L47.8578 4.38156V4.36071L47.8608 4.34283V4.33389L47.8638 4.32197L47.8698 4.28324V4.27132L47.8727 4.26537L47.8757 4.24451V4.22663L47.8787 4.20876V4.2028L47.8817 4.18492V4.17896L47.8847 4.16407L47.8876 4.14619L47.8906 4.12533L47.8936 4.1164V4.10746L47.8996 4.06575L47.9025 4.05085V4.04787L47.9055 4.02702L47.9085 4.02106V4.00914L47.9115 3.99126V3.98828L47.9174 3.96743L47.9204 3.94955L47.9234 3.9287V3.92572L47.9264 3.90784L47.9293 3.89592V3.88996L47.9353 3.86911V3.86315L47.9383 3.85123L47.9413 3.83336V3.83038L47.9472 3.80952L47.9562 3.75291V3.74993L47.9621 3.73802V3.72908L47.9651 3.7112L47.9681 3.70524L47.974 3.67545V3.67247L47.98 3.65161L47.983 3.64268L47.986 3.63076L47.9949 3.59203L47.9979 3.58011L48.0009 3.57117ZM51.1352 3.08553L52.8721 4.35475C52.9526 4.41135 53.0479 4.42923 53.1373 4.41135C53.1492 4.50074 53.1939 4.59012 53.2743 4.64673L53.3161 4.67652C53.465 4.78676 53.6736 4.75398 53.7838 4.60501C53.8941 4.45307 53.8583 4.24451 53.7093 4.13725L53.6706 4.10746C53.5902 4.04787 53.4918 4.02999 53.4025 4.04787C53.3935 3.95849 53.3459 3.86911 53.2654 3.8125L51.5284 2.54329C51.3765 2.43305 51.1679 2.4688 51.0607 2.61777C50.9504 2.76674 50.9862 2.9753 51.1352 3.08553ZM51.7787 9.86957L54.9934 5.46307C55.0054 5.4452 55.0173 5.4303 55.0262 5.4154C55.0769 5.33794 55.0918 5.24856 55.0798 5.16216C55.065 5.07873 55.0232 4.99531 54.9547 4.9387C54.9368 4.92977 54.9219 4.91785 54.91 4.90295L50.4022 1.61968C50.3248 1.56009 50.2235 1.53924 50.1311 1.55413C50.0387 1.56903 49.9523 1.61968 49.8928 1.70012L48.8738 3.09447L48.8619 3.12426L48.85 3.1481V3.15108L48.8351 3.18087L48.8261 3.20471L48.8142 3.23152L48.8023 3.2643L48.7934 3.28813L48.7904 3.29409L48.7815 3.31494L48.7785 3.3209L48.7725 3.34474L48.7695 3.3507L48.7606 3.37155L48.7576 3.37751L48.7517 3.40135L48.7487 3.40731L48.7397 3.42816V3.43412L48.7308 3.45498L48.7278 3.46391L48.7219 3.48477L48.7189 3.49073L48.7129 3.51158L48.704 3.54138V3.54734L48.6921 3.57713L48.6891 3.59501L48.6861 3.60394L48.6802 3.6248L48.6712 3.65161V3.66055L48.6653 3.67843L48.6623 3.69035L48.6563 3.70822L48.6533 3.72014L48.6504 3.73802L48.6474 3.74695L48.6444 3.76483L48.6414 3.77675L48.6355 3.79164V3.80356L48.6325 3.82144L48.6295 3.83336L48.6235 3.84825L48.6206 3.86017L48.6086 3.91976L48.6057 3.93168L48.5967 3.97637V3.99126L48.5938 4.00318L48.5818 4.06277L48.5789 4.07469L48.5759 4.08958V4.10448L48.5729 4.11938L48.5699 4.13129L48.5669 4.14917L48.564 4.15811V4.17598L48.561 4.1879L48.558 4.20578L48.5491 4.26537V4.27132L48.5431 4.30112V4.32197L48.5401 4.32793L48.5371 4.35177V4.35773L48.5342 4.37858L48.5312 4.38752L48.5282 4.40838V4.41433L48.5252 4.43519V4.44413L48.5222 4.46498V4.47094L48.5193 4.49478V4.50074L48.5163 4.52457L48.5133 4.52755V4.55139L48.5103 4.55734V4.58714L48.5073 4.61097V4.61395L48.5044 4.64077L48.5014 4.64375V4.67056L48.4954 4.69737V4.70035L48.4925 4.72717V4.73015L48.4895 4.75398V4.78378L48.4865 4.78676L48.4835 4.81357V4.84336L48.4746 4.89997C48.3882 5.76399 48.2988 6.64291 47.6642 7.61418L47.6523 7.63504C47.4795 7.89424 47.2083 8.19814 46.8895 8.46033C46.5618 8.72847 46.1805 8.96682 45.7961 9.08599L45.7782 9.09195H45.7753L45.7574 9.09791L45.7365 9.10387L45.7187 9.10983H45.7157L45.6978 9.11579L45.6799 9.11877H45.6769L45.6591 9.12473H45.6561L45.6382 9.13068L45.6203 9.13366H45.6144L45.5995 9.13664H45.5965L45.5786 9.13962L45.5756 9.1426L45.5607 9.14558H45.5548L45.5399 9.14856H45.5369L45.519 9.15154H45.5161L45.5012 9.15452H45.4952L45.4803 9.1575H45.4773L45.4624 9.16048H45.4565L45.4416 9.16346H45.4356L45.4237 9.16644H45.4028L45.3969 9.16942H45.3552L45.3433 9.1724H45.1883L45.1794 9.16942H45.1496L45.1407 9.16644H45.1109L45.093 9.16048H45.0721L45.0632 9.1575H45.0543L45.0453 9.15452H45.0364L45.0245 9.15154H45.0155L44.9678 9.13962H44.9619L44.9291 9.13068H44.9232L44.9053 9.12473L44.8904 9.11877H44.8874L44.8725 9.11579L44.8338 9.10089L44.8159 9.09493H44.8129L44.798 9.08897L44.795 9.08599L44.7802 9.08004H44.7772L44.7623 9.0711H44.7593L44.7444 9.06514H44.7414L44.7265 9.0562H44.7235L44.7057 9.04726L44.6878 9.0413V9.03832L44.652 9.02045V9.01747L44.6342 9.01151V9.00853L44.5984 8.99065L44.5805 8.97874L43.1296 10.966C43.1206 10.9839 43.1087 10.9988 43.0968 11.0136C43.0491 11.0911 43.0342 11.1805 43.0462 11.2669C43.0581 11.3533 43.1028 11.4308 43.1713 11.4903C43.1862 11.4993 43.2011 11.5112 43.216 11.5231L45.4475 13.1528L45.4624 13.1618L47.7208 14.8094C47.7416 14.8243 47.7625 14.8362 47.7834 14.8481C47.9651 13.5759 48.4835 11.6542 49.2224 10.1675C49.8719 8.8536 50.7151 7.85253 51.6953 7.83168C51.7549 7.82572 51.8204 7.83764 51.877 7.87041C52.2941 8.09088 52.0528 8.91915 51.7876 9.83382L51.7787 9.86957ZM96.2578 30.3468L96.2608 30.3498L96.2578 30.3468ZM97.673 45.2556C97.8249 45.2079 97.9739 45.1543 98.1229 45.0947C98.099 44.6717 98.3225 44.1622 98.5787 43.5693C98.9303 42.7589 99.3563 41.7757 99.2044 40.867C99.0912 40.1937 98.6294 39.8183 98.0901 39.3803C97.3512 38.7785 96.4872 38.0753 96.0135 36.4426C95.8288 35.811 95.7573 35.1674 95.8317 34.5984C95.9033 34.0472 96.1088 33.5645 96.4812 33.2189C96.8179 32.9031 97.241 32.8703 97.7415 32.8316C98.3642 32.781 99.1299 32.7214 99.8301 31.9408C100.039 31.7114 100.185 31.473 100.274 31.2466C100.366 31.0082 100.396 30.7818 100.366 30.5852C100.337 30.4094 100.259 30.2574 100.134 30.1442C100.065 30.0817 99.979 30.031 99.8807 29.9923C99.7139 29.9267 99.5023 29.8999 99.2461 29.9208C98.9958 29.9386 98.7068 30.0072 98.3851 30.1353C98.1795 30.2157 97.9382 30.3498 97.6939 30.4868C97.2678 30.7252 96.8358 30.9695 96.4425 31.0142C96.3025 31.0291 96.1744 31.0202 96.0612 30.9844C95.8645 30.9248 95.7215 30.7997 95.6411 30.615C95.5785 30.463 95.5606 30.2813 95.5964 30.0697C95.6381 29.8135 95.7602 29.4977 95.9658 29.1372C95.9688 29.1372 96.0492 28.9912 96.0641 28.9703C96.4336 28.3298 96.8745 27.5671 96.6749 27.0129C96.5915 26.7745 96.4336 26.563 96.2042 26.3753C95.9599 26.1727 95.6321 25.9969 95.224 25.845C94.6251 25.6573 94.0918 25.5828 93.627 25.6215C93.189 25.6543 92.8136 25.7884 92.4919 26.0237C92.1969 26.3187 91.8781 26.5988 91.5325 26.8699C91.5206 26.8818 91.5087 26.8907 91.4967 26.8997C91.3388 27.0218 91.172 27.144 91.0022 27.2661C90.4629 27.6475 89.8462 28.0259 89.1192 28.4341C89.0894 28.58 89.2086 28.7141 89.3516 28.881C89.6555 29.2296 90.0279 29.6586 90.016 30.4749C90.0041 31.3389 89.5631 32.1195 89.1639 32.8257C88.8064 33.4603 88.4876 34.0234 88.6485 34.3749C88.8511 34.8189 89.4857 34.95 90.1799 35.093C91.169 35.2956 92.2535 35.522 92.8047 36.6244C93.1384 37.2977 93.1414 38.1558 92.8077 39.1985C92.5693 39.9553 92.1492 40.8163 91.5534 41.7817L91.5295 41.8174C91.3806 42.0587 91.2197 42.306 91.0469 42.5593C91.0767 42.6397 91.1094 42.7202 91.1482 42.7976C91.5951 43.7451 92.5425 44.5674 93.7223 45.05C94.9081 45.5387 96.3174 45.6787 97.673 45.2556ZM46.6482 19.3559C46.9253 18.769 47.2679 18.2476 47.6761 17.8066C48.3256 17.0975 49.1271 16.6 50.0715 16.3825C50.4112 15.2801 50.4886 14.2403 50.5691 13.1469C50.6138 12.5272 50.6614 11.8926 50.7598 11.2073C50.8223 10.7604 50.9892 10.1884 51.1441 9.6491C51.299 9.11281 51.5344 8.6659 51.5701 8.51693C50.9385 8.63313 50.3367 9.4316 49.8242 10.4654C49.0585 12.0088 48.5401 14.0258 48.412 15.2027C48.412 15.2265 48.412 15.2444 48.406 15.2652C48.3971 15.3784 48.3882 15.4857 48.3852 15.581C48.3792 15.7658 48.2243 15.9117 48.0396 15.9058C47.8549 15.8998 47.7089 15.7449 47.7148 15.5602V15.5334C47.5778 15.5036 47.4497 15.441 47.3245 15.3516C46.7734 14.9196 46.1983 14.4965 45.6144 14.0794C45.662 15.0567 45.7782 15.9981 45.963 16.9128C46.1328 17.753 46.3622 18.5693 46.6482 19.3559ZM111.905 19.0401C112.218 18.6766 112.585 18.3519 112.987 18.0688C113.485 17.7202 114.045 17.4372 114.649 17.2286C114.62 16.7638 114.545 15.9415 114.429 15.0686C114.316 14.2344 114.17 13.3554 113.985 12.691C113.893 12.3514 113.809 12.0803 113.744 11.9313L113.738 11.9492C113.705 12.0415 113.681 12.1488 113.663 12.2709C113.735 12.3484 113.8 12.4348 113.863 12.5302C113.899 12.5897 113.92 12.6642 113.911 12.7417C113.902 12.8758 113.854 13.0664 113.771 13.3078C113.705 13.4984 113.619 13.7249 113.505 13.996C113.586 14.136 113.669 14.285 113.753 14.4429C113.839 14.6068 113.78 14.8124 113.616 14.8988C113.455 14.9852 113.249 14.9256 113.163 14.7617C112.883 14.2463 112.632 13.8262 112.409 13.4955C112.296 13.3256 112.191 13.1826 112.093 13.0694L112.081 13.0515V13.0486C112.001 12.9592 111.929 12.8847 111.867 12.8281L111.861 12.8221C111.757 12.8043 111.563 12.9383 111.333 13.1588C111.05 13.4329 110.749 13.8262 110.478 14.2463C109.999 14.9852 109.626 15.7807 109.629 16.1471C109.632 16.594 109.832 17.0677 110.228 17.5623C110.252 17.5921 110.273 17.6189 110.3 17.6487C110.309 17.6577 110.317 17.6696 110.323 17.6785C110.702 18.1195 111.226 18.5723 111.905 19.0401ZM98.8022 45.1037L98.823 45.1424L98.8379 45.1871C99.0346 45.4403 99.9343 45.3778 102.324 44.77C102.839 44.6091 103.34 44.4333 103.819 44.2516C107.079 43.0032 109.436 41.2811 110.887 39.0883C111.932 36.3354 110.41 35.1228 109.01 34.0055C108.214 33.3709 107.451 32.7631 107.112 31.9169C106.736 30.9814 107.007 30.0906 107.302 29.1104C107.597 28.1361 107.919 27.0695 107.553 25.8599C107.013 24.0752 105.673 23.8875 104.32 23.6939C103.894 23.6343 103.468 23.5747 103.054 23.4704L103.039 23.4674C102.112 23.2321 101.659 22.6809 101.159 22.0791C100.536 21.3223 99.8301 20.4702 97.7773 20.2259C97.2172 20.1603 96.6392 20.1693 96.0731 20.2587C94.9796 20.4255 93.9309 20.8813 93.1235 21.6232C92.3191 22.3591 91.747 23.384 91.5921 24.6949C91.5444 25.0912 91.5355 25.5143 91.5712 25.9671C91.7321 25.8241 91.8871 25.6811 92.033 25.5321C92.0509 25.5173 92.0658 25.5024 92.0837 25.4904C92.5097 25.1746 93.0073 24.9959 93.5764 24.9512C94.1246 24.9065 94.7443 24.9899 95.4236 25.2044L95.4563 25.2163C95.933 25.3921 96.3233 25.6066 96.6302 25.8569C96.955 26.125 97.1814 26.4319 97.3065 26.7835C97.6134 27.6356 97.0861 28.5413 96.6421 29.307L96.5498 29.4679C96.3829 29.7599 96.2876 30.0012 96.2578 30.18C96.2459 30.2545 96.2459 30.3111 96.2578 30.3438C96.2816 30.3498 96.3174 30.3498 96.368 30.3468C96.6243 30.317 96.9997 30.1085 97.3631 29.8999C97.6283 29.7539 97.8905 29.6079 98.1378 29.5096C98.5281 29.3577 98.8796 29.2742 99.1955 29.2504C99.55 29.2206 99.8628 29.2653 100.125 29.3666C100.301 29.4351 100.453 29.5275 100.581 29.6437C100.825 29.8612 100.977 30.1502 101.028 30.4809C101.075 30.7907 101.037 31.1364 100.9 31.4879C100.783 31.7888 100.596 32.0957 100.331 32.3907C99.4517 33.3709 98.537 33.4424 97.7952 33.502C97.4198 33.5288 97.1039 33.5556 96.9371 33.7076C96.6898 33.9399 96.5498 34.2826 96.4961 34.6818C96.4336 35.1585 96.4991 35.7067 96.657 36.2579C97.0712 37.685 97.8488 38.3166 98.5162 38.8589C99.1597 39.3833 99.7139 39.8331 99.8658 40.7597C100.051 41.8591 99.5798 42.9436 99.1955 43.8344C98.9511 44.3946 98.7456 44.8683 98.8022 45.1037ZM75.2413 73.1038C60.5023 74.9481 56.0481 80.1113 50.2086 86.8805C47.8161 89.6513 45.1943 92.6902 41.5535 95.8871C39.748 97.4721 37.5492 98.9082 35.3266 100.362C29.8743 103.925 24.2433 107.605 24.1867 113.644C25.6436 112.95 27.0499 112.53 28.4115 112.381C29.9309 112.217 31.3879 112.396 32.7852 112.917C35.6692 113.993 37.3019 116.043 38.9793 118.149C40.8652 120.521 42.8108 122.967 46.6959 124.051C51.9515 125.52 54.91 123.446 57.9043 121.346C60.6811 119.4 63.4876 117.434 68.1027 118.045C72.8101 118.67 76.5105 121.087 80.2824 123.548C85.4427 126.911 90.737 130.37 98.9005 129.298C101.353 128.979 104.561 127.558 107.69 125.493C108.023 125.273 108.36 125.043 108.691 124.811C108.7 124.802 108.709 124.799 108.718 124.79C111.375 122.907 113.899 120.586 115.749 118.125C117.766 115.447 118.987 112.607 118.722 109.991C118.722 109.983 118.719 109.974 118.719 109.962C118.713 109.905 118.707 109.848 118.701 109.792C118.57 108.809 118.228 107.861 117.635 106.958C116.1 104.635 114.003 103.574 112.01 102.567C110.031 101.569 108.151 100.618 106.927 98.5626C105.592 96.3251 106.099 94.2246 106.656 91.9096C106.995 90.4915 107.356 88.9899 107.293 87.3452C107.231 85.7334 106.882 84.2556 106.248 82.9179C105.658 81.6666 104.815 80.5344 103.724 79.5184C102.893 80.3646 101.788 80.877 100.408 81.0498C100.104 81.0886 99.7764 81.1124 99.4308 81.1154H99.4159C92.4531 80.9187 86.9919 80.2514 83.0353 79.1162C79.0042 77.9602 76.5016 76.3067 75.5273 74.1526C75.3843 73.8308 75.2919 73.4822 75.2413 73.1038ZM35.9582 115.718C31.9659 117.19 28.7601 119.085 26.2693 121.072C23.0933 123.607 21.0852 126.295 20.093 128.449C20.0513 128.538 19.9769 128.604 19.8875 128.627C19.2618 128.848 18.2846 128.711 17.1226 128.327C15.037 127.635 12.2692 126.137 9.91252 124.498C7.532 122.839 5.55072 121.018 5.07402 119.701C4.93995 119.332 4.91313 118.986 5.01443 118.682C5.05316 118.563 5.15446 118.483 5.26768 118.459C7.0851 118.095 9.31665 118.098 11.6465 118.104C13.8155 118.107 16.0709 118.11 18.1356 117.812C18.6987 117.732 19.4525 117.336 20.3076 116.74C21.2997 116.049 22.414 115.089 23.5223 114.043C23.3286 107.402 29.2367 103.538 34.9571 99.799C37.1678 98.354 39.3487 96.9299 41.1125 95.3806C44.7176 92.2165 47.3216 89.1984 49.6991 86.4395C55.64 79.5542 60.1716 74.3045 75.1936 72.4305C75.1728 71.0391 75.5779 69.3528 76.0249 67.4818C76.7727 64.3474 77.6486 60.6888 76.7846 57.2595C75.9712 54.0269 72.7505 52.2661 69.6341 50.5649C68.642 50.0256 67.6618 49.4923 66.7739 48.9202C61.4795 45.5208 57.1714 42.1571 53.8553 38.8261C50.5244 35.4833 48.1886 32.1702 46.8508 28.8899C45.7633 26.2234 45.5339 23.4436 46.0315 21.1852C46.1 20.8694 46.1834 20.5655 46.2818 20.2706C45.8587 19.2367 45.531 18.1642 45.3045 17.0469C45.0811 15.9356 44.9559 14.7826 44.9261 13.5908C44.2051 13.0813 43.4841 12.5689 42.7929 12.0445C42.5635 11.8747 42.4235 11.6304 42.3847 11.3682C42.34 11.106 42.4026 10.8319 42.5695 10.5995L44.1843 8.38584C44.1634 7.43244 44.6997 6.15429 45.5161 5.03702C46.2907 3.97339 47.3245 3.03786 48.3763 2.64161L49.3505 1.30387C49.5203 1.07445 49.7676 0.931445 50.0268 0.892713C50.289 0.851002 50.5661 0.910589 50.7985 1.07743L55.3331 4.38752C55.5625 4.55436 55.7025 4.80165 55.7413 5.06086C55.783 5.32006 55.7234 5.60013 55.5565 5.82954L51.3914 11.535C51.3199 12.1071 51.2811 12.6553 51.2394 13.1946C51.165 14.2284 51.0875 15.2205 50.8044 16.2752C52.0498 16.1858 53.4948 16.5523 55.1037 17.5087C56.2925 18.2148 57.6183 19.2069 59.0812 20.4821C60.5351 21.7513 62.1231 23.3006 63.8482 25.1299C66.9765 28.0408 69.8993 30.5584 72.6254 32.6797C75.3515 34.804 77.881 36.538 80.2079 37.8787C82.4097 39.1479 84.4356 40.0685 86.2799 40.6346C88.0377 41.1768 89.6317 41.3973 91.0588 41.299C91.5861 40.435 91.9556 39.6663 92.1701 38.9959C92.4472 38.1289 92.4591 37.4377 92.1999 36.9253C91.7977 36.1119 90.883 35.9212 90.0488 35.7514C89.1788 35.5726 88.3803 35.4088 88.0377 34.655C87.7338 33.9906 88.133 33.2904 88.5799 32.4949C88.9375 31.8603 89.3337 31.1602 89.3456 30.466C89.3516 29.9029 89.0715 29.5811 88.8451 29.3189C88.5055 28.9286 88.2403 28.6218 88.5591 28.0378C88.5919 27.9812 88.6366 27.9335 88.6902 27.9067C89.438 27.4896 90.0667 27.1053 90.6149 26.7179C90.7281 26.6375 90.8413 26.5571 90.9485 26.4736C90.8592 25.8062 90.8562 25.1895 90.9247 24.6145C91.1005 23.1337 91.753 21.9688 92.6706 21.1286C93.5823 20.2944 94.7532 19.779 95.9748 19.5942C96.5974 19.4959 97.235 19.484 97.8577 19.5585C100.176 19.8326 100.971 20.7979 101.677 21.653C102.1 22.1655 102.488 22.6332 103.206 22.815L103.218 22.8179C103.602 22.9163 104.007 22.9729 104.412 23.0295C105.979 23.2529 107.535 23.4734 108.196 25.6632C108.625 27.0695 108.268 28.2404 107.946 29.307C107.687 30.1681 107.448 30.9546 107.734 31.6667C108.008 32.349 108.703 32.9001 109.427 33.4811C110.577 34.3988 111.801 35.373 111.917 37.0683C112.984 34.2349 112.874 30.761 111.581 26.6435C111.384 26.0208 111.164 25.3832 110.91 24.7247L110.898 24.686C110.478 23.3185 110.49 22.0582 110.83 20.9648C110.988 20.4642 111.211 19.9994 111.497 19.5764C110.919 19.1771 110.443 18.7779 110.064 18.3876C109.936 18.5276 109.814 18.6438 109.701 18.7421C109.492 18.9179 109.293 19.0341 109.111 19.0818C109.081 19.0907 109.048 19.0937 109.015 19.0937L108.861 19.0878C107.356 19.0073 105.842 18.2952 104.713 17.4938C103.554 16.6685 102.777 15.7032 102.771 15.1699V15.1431C102.756 14.3446 103.581 11.9641 104.523 9.99172C105.294 8.37988 106.179 7.00937 106.826 6.87828C106.844 6.87232 106.864 6.86934 106.885 6.86636C107.216 6.8455 107.719 6.97362 108.303 7.22091C108.81 7.42946 109.388 7.73038 109.99 8.09386C110.565 7.74528 111.047 7.22389 111.551 6.68164C112.921 5.19493 114.441 3.55329 118.219 4.19386C121.338 4.72419 122.721 6.43733 124.082 8.13259C125.095 9.38691 126.096 10.6323 127.824 11.2967C129.165 11.8121 130.384 11.9194 131.548 12.0207C133.738 12.2054 135.74 12.3782 138.088 15.0626C138.687 15.7509 139.214 16.5434 139.667 17.4431C140.117 18.337 140.496 19.338 140.796 20.4464L140.802 20.4642C141.038 21.5845 141.008 22.4157 140.713 22.949C140.385 23.5479 139.778 23.7803 138.896 23.6402L138.869 23.6343C138.595 23.5687 138.315 23.4615 138.032 23.3244C137.752 23.1844 137.466 23.0116 137.174 22.803L137.159 22.7911C136.807 22.5111 136.482 22.3055 136.187 22.1774C135.916 22.0642 135.672 22.0135 135.457 22.0314C135.127 22.0582 134.909 22.2727 134.686 22.4932C134.23 22.9431 133.759 23.4108 132.529 23.1189C131.408 22.8567 130.345 21.9092 129.254 20.9379C128.793 20.5298 128.325 20.1156 127.869 19.7611C126.558 18.7511 125.587 18.6766 124.589 18.5962C123.674 18.5217 122.733 18.4472 121.508 17.753C119.655 16.6953 118.967 15.2533 118.311 13.8738C117.814 12.84 117.34 11.8419 116.378 11.1298C115.749 10.6651 115.031 10.4565 114.226 10.5072C113.884 10.528 113.52 10.5965 113.142 10.7098C113.219 10.8081 113.294 10.9064 113.362 11.0047C113.401 11.0554 113.437 11.109 113.47 11.1626C113.508 11.1418 113.55 11.1328 113.595 11.1269L113.616 11.1239C113.636 11.1239 113.657 11.1239 113.675 11.1269C114.101 11.1477 114.411 11.7078 114.632 12.5153C114.825 13.2124 114.98 14.1211 115.093 14.9792C115.201 15.7807 115.272 16.5374 115.308 17.035C115.946 16.8771 116.628 16.7996 117.337 16.8056C120.286 16.8353 121.734 18.7541 123.316 20.8575C123.522 21.1316 123.734 21.4117 123.954 21.6947C125.048 23.095 126.022 24.4923 126.883 25.8897C127.747 27.284 128.489 28.6694 129.114 30.0459C131.164 34.5686 132.121 39.6127 131.352 44.2516C130.681 48.3125 128.691 52.0635 124.964 54.8909C122.128 57.039 119.122 57.763 116.303 58.4423C111.137 59.6877 106.641 60.7722 105.387 70.7263C105.503 71.6588 105.565 72.5288 105.574 73.3332C105.607 75.6542 105.196 77.4597 104.344 78.7438C104.287 78.8362 104.225 78.9226 104.162 79.0089C105.324 80.0875 106.224 81.2971 106.855 82.6289C107.529 84.053 107.898 85.6142 107.964 87.3214C108.032 89.0524 107.66 90.6047 107.305 92.0646C106.784 94.2395 106.31 96.2148 107.502 98.217C108.628 100.106 110.425 101.015 112.311 101.968C114.381 103.014 116.559 104.113 118.195 106.592C118.833 107.554 119.205 108.573 119.354 109.622C122.968 109.845 126.058 109.688 128.629 109.154C131.236 108.612 133.303 107.682 134.829 106.366C134.909 106.297 135.011 106.273 135.109 106.291C135.434 106.348 135.773 106.544 136.122 106.86C137.501 108.117 139.173 111.431 140.418 114.836C141.663 118.247 142.495 121.778 142.194 123.467C142.125 123.849 141.997 124.155 141.803 124.367C141.705 124.474 141.553 124.507 141.425 124.453C139.763 123.86 138.44 122.472 137.045 121.006C135.636 119.528 134.149 117.967 132.21 117.157C130.741 116.546 127.622 117.255 124.106 118.489C118.305 120.524 111.494 123.989 109.075 125.359C108.735 125.597 108.399 125.83 108.056 126.056C104.85 128.172 101.537 129.632 98.9869 129.962C90.5791 131.065 85.1775 127.54 79.9189 124.111C76.2096 121.688 72.5718 119.317 68.0163 118.712C63.6604 118.134 60.9611 120.026 58.2886 121.897C55.1633 124.087 52.0737 126.253 46.5171 124.698C42.4205 123.554 40.4064 121.021 38.452 118.566C37.6565 117.568 36.8729 116.582 35.9582 115.718Z" fill="black"/>
</g>
<defs>
<filter id="filter0_d" x="0.953003" y="0.879883" width="145.303" height="137.288" filterUnits="userSpaceOnUse" color-interpolation-filters="sRGB">
<feFlood flood-opacity="0" result="BackgroundImageFix"/>
<feColorMatrix in="SourceAlpha" type="matrix" values="0 0 0 0 0 0 0 0 0 0 0 0 0 0 0 0 0 0 127 0"/>
<feOffset dy="4"/>
<feGaussianBlur stdDeviation="2"/>
<feColorMatrix type="matrix" values="0 0 0 0 0 0 0 0 0 0 0 0 0 0 0 0 0 0 0.25 0"/>
<feBlend mode="normal" in2="BackgroundImageFix" result="effect1_dropShadow"/>
<feBlend mode="normal" in="SourceGraphic" in2="effect1_dropShadow" result="shape"/>
</filter>
</defs>
</svg>
